<svg xmlns="http://www.w3.org/2000/svg" xmlns:xlink="http://www.w3.org/1999/xlink" xmlns:inkscape="http://www.inkscape.org/namespaces/inkscape" version="1.1" width="100" height="100" viewBox="0 0 100 100">
<defs>
<clipPath id="clip_1">
<path transform="matrix(1,0,0,-1,0,100)" d="M0 100H100V0H0Z"/>
</clipPath>
<clipPath id="clip_2">
<path transform="matrix(1,0,0,-1,0,100)" d="M0 0H100V100H0Z"/>
</clipPath>
</defs>
<g>
<g inkscape:groupmode="layer" inkscape:label="Layer 1">
</g>
<g inkscape:groupmode="layer" inkscape:label="Layer 2">
<g clip-path="url(#clip_1)">
<g opacity=".5">
<g clip-path="url(#clip_2)">
<path transform="matrix(1,0,0,-1,95.2588,49.5425)" d="M0 0C-.865-6.82-3.009-14.673-9.858-16.797-8.451-17.032-7.223-17.439-5.791-17.52-8.997-22.269-10.945-28.054-15.678-31.375-20.584-34.817-26.587-35.875-31.954-38.185-30.608-40.519-33.06-40.074-34.89-40.286-37.5-40.586-39.721-41.676-42.09-42.878L-36.693-43.945C-42.218-46.251-49.578-45.594-55.244-44.017-60.75-42.485-66.347-39.167-68.886-33.398-68.752-34.41-69.036-35.41-68.948-36.422-74.938-29.022-83.938-23.657-85.787-13.265-86.299-14.406-87.119-15.29-87.632-16.431-90.353-9.688-91.463-3.584-89.831 3.664-88.612 9.075-86.021 14.267-80.75 15.901-82.157 16.136-83.385 16.543-84.817 16.624-81.61 21.373-79.663 27.158-74.93 30.479-70.024 33.921-64.021 34.979-58.654 37.289-59.999 39.623-57.549 39.178-55.718 39.39-53.108 39.691-50.887 40.78-48.519 41.982-50.317 42.337-52.116 42.693-53.915 43.049-48.391 45.356-41.03 44.699-35.364 43.121-29.858 41.589-24.261 38.271-21.723 32.502-21.856 33.514-21.572 34.514-21.66 35.526-15.67 28.125-6.67 22.76-4.821 12.369-4.309 13.51-3.489 14.393-2.976 15.535-.976 10.577 .697 5.494 0 0M4.525-.673C5.819 9.523 1.064 17.767-3.665 25.951-3.925 25.158-4.184 24.366-4.443 23.573-8.44 29.631-14.25 34.73-19.256 39.803-21.983 42.567-24.777 45.258-27.538 47.984-27.38 46.966-27.223 45.948-27.064 44.93-35.221 49.679-47.531 51.225-56.209 47.354-60.763 45.324-65.248 43.086-69.762 40.955-69.207 40.858-66.18 39.73-65.745 39.88-69.935 38.436-74.218 36.97-77.901 34.292-81.753 31.492-84.728 27.551-87.467 23.556-89.98 19.892-92.438 16.182-94.926 12.497-93.833 12.436-92.739 12.375-91.646 12.313-95.863 4.333-96.303-5.682-93.412-14.197-91.849-18.802-89.335-22.707-86.943-26.846-86.684-26.054-86.424-25.261-86.165-24.469-82.167-30.527-76.358-35.626-71.353-40.699-68.625-43.463-65.831-46.154-63.07-48.88-63.228-47.862-63.386-46.844-63.543-45.826-55.316-50.616-43.101-52.138-34.398-48.25-29.846-46.216-25.36-43.983-20.846-41.851-21.401-41.754-24.428-40.625-24.863-40.776-20.673-39.332-16.391-37.866-12.707-35.188-8.855-32.388-5.88-28.448-3.141-24.452-.628-20.788 1.831-17.078 4.318-13.393 3.225-13.332 2.131-13.271 1.037-13.209 3.057-9.388 3.977-4.996 4.525-.673" fill="#007eff"/>
</g>
</g>
</g>
</g>
</g>
</svg>
