<svg xmlns="http://www.w3.org/2000/svg" xmlns:xlink="http://www.w3.org/1999/xlink" xmlns:inkscape="http://www.inkscape.org/namespaces/inkscape" version="1.1" width="81.4989" height="81.4972" viewBox="0 0 81.4989 81.4972">
<defs>
<clipPath id="clip_1">
<path transform="matrix(1,0,0,-1,0,81.4972)" d="M0 0H81.4989V81.497H0Z"/>
</clipPath>
<clipPath id="clip_2">
<path transform="matrix(1,0,0,-1,0,81.4972)" d="M0-82H163V82H0Z"/>
</clipPath>
<clipPath id="clip_3">
<path transform="matrix(1,0,0,-1,0,81.4972)" d="M.0224609 0H82V81.4762H.0224609Z"/>
</clipPath>
<clipPath id="clip_4">
<path transform="matrix(1,0,0,-1,0,81.4972)" d="M0 0H81.4989V81.497H0Z"/>
</clipPath>
<clipPath id="clip_5">
<path transform="matrix(1,0,0,-1,0,81.4972)" d="M0-81H163V81H0Z"/>
</clipPath>
<clipPath id="clip_6">
<path transform="matrix(1,0,0,-1,0,81.4972)" d="M.522781 0H82V80.9763H.522781Z"/>
</clipPath>
<clipPath id="clip_7">
<path transform="matrix(1,0,0,-1,0,81.4972)" d="M0 0H81.4989V81.497H0Z"/>
</clipPath>
<clipPath id="clip_8">
<path transform="matrix(1,0,0,-1,0,81.4972)" d="M33 12H70V49H33Z"/>
</clipPath>
<clipPath id="clip_9">
<path transform="matrix(1,0,0,-1,0,81.4972)" d="M33.3191 12.4297H69.0715V48.1698H33.3191Z"/>
</clipPath>
<clipPath id="clip_10">
<path transform="matrix(1,0,0,-1,0,81.4972)" d="M0 0H81.4989V81.497H0Z"/>
</clipPath>
<clipPath id="clip_11">
<path transform="matrix(1,0,0,-1,0,81.4972)" d="M37 18H64V45H37Z"/>
</clipPath>
<clipPath id="clip_12">
<path transform="matrix(1,0,0,-1,0,81.4972)" d="M37.3696 18.4873H63.012899V44.122903H37.3696Z"/>
</clipPath>
</defs>
<g>
<g clip-path="url(#clip_1)">
<g opacity=".06">
<g clip-path="url(#clip_2)">
<g clip-path="url(#clip_3)">
<path transform="matrix(1,0,0,-1,0,81.4972)" d="M79.999 1.5002V78.4312C59.562 78.0472 40.4 69.9172 25.991 55.5082 11.581 41.0992 3.452 21.9372 3.067 1.5002ZM159.93 1.5002C159.546 21.9362 151.417 41.0982 137.007 55.5082 122.597 69.9172 103.435 78.0472 82.999 78.4312V1.5002ZM3.067-1.4998C3.452-21.9368 11.581-41.0988 25.991-55.5078 40.4-69.9168 59.562-78.0468 79.999-78.4308V-1.4998ZM82.999-78.4308C103.435-78.0468 122.597-69.9178 137.007-55.5078 151.417-41.0978 159.546-21.9358 159.93-1.4998H82.999ZM80.499-81.4758C59.095-81.2138 38.985-72.7448 23.87-57.6288 8.755-42.5148 .286-22.4058 .022-1.0058V1.0002C.286 22.4062 8.755 42.5152 23.87 57.6292 38.985 72.7452 59.095 81.2142 80.493 81.4762H82.499C103.903 81.2142 124.013 72.7452 139.128 57.6292 154.243 42.5152 162.712 22.4062 162.976 1.0062V-.9998C162.712-22.4058 154.243-42.5148 139.128-57.6288 124.013-72.7448 103.903-81.2138 82.505-81.4758H82.502Z" fill="#ffffff"/>
</g>
</g>
</g>
</g>
<g clip-path="url(#clip_4)">
<g opacity=".06">
<g clip-path="url(#clip_5)">
<g clip-path="url(#clip_6)">
<path transform="matrix(1,0,0,-1,0,81.4972)" d="M25.6377-55.8612C10.4907-40.7142 2.8097-20.8952 2.5597-1.0002H80.4987V-78.9392C60.6037-78.6892 40.7837-71.0082 25.6377-55.8612M25.6377 55.8618C40.7837 71.0088 60.6037 78.6898 80.4987 78.9388V.9998H2.5597C2.8097 20.8958 10.4907 40.7148 25.6377 55.8618M137.3607 55.8618C152.5077 40.7148 160.1887 20.8958 160.4377 .9998H82.4987V78.9388C102.3947 78.6898 122.2127 71.0088 137.3607 55.8618M137.3607-55.8612C122.2127-71.0082 102.3947-78.6892 82.4987-78.9392V-1.0002H160.4377C160.1887-20.8952 152.5077-40.7142 137.3607-55.8612M138.7747-57.2762V-57.2762C154.3367-41.7142 162.2247-21.3952 162.4757-1.0002V.9998C162.2247 21.3948 154.3367 41.7138 138.7747 57.2758 123.2127 72.8378 102.8937 80.7258 82.4987 80.9758H80.4987C60.1037 80.7258 39.7847 72.8378 24.2237 57.2758 8.6607 41.7138 .7737 21.3948 .5227 .9998V-1.0002C.7737-21.3952 8.6607-41.7142 24.2237-57.2762 39.7847-72.8372 60.1037-80.7262 80.4987-80.9762H82.4987C102.8937-80.7262 123.2127-72.8372 138.7747-57.2762" fill="#ffffff"/>
</g>
</g>
</g>
</g>
<g clip-path="url(#clip_7)">
<g opacity=".07">
<g clip-path="url(#clip_8)">
<g clip-path="url(#clip_9)">
<path transform="matrix(1,0,0,-1,0,81.4972)" d="M33.3193 48.1701 69.0713 36.2711 64.3413 33.3991C61.0263 31.3861 57.9663 28.9841 55.2463 26.2621 52.5273 23.5411 50.1293 20.4781 48.1173 17.1601L45.2503 12.4301Z" fill="#ffffff"/>
</g>
</g>
</g>
</g>
<g clip-path="url(#clip_10)">
<g opacity=".08">
<g clip-path="url(#clip_11)">
<g clip-path="url(#clip_12)">
<path transform="matrix(1,0,0,-1,0,81.4972)" d="M45.9277 18.4875C47.9957 21.9015 50.4907 25.1255 53.4347 28.0715 56.3787 31.0185 59.6017 33.5165 63.0127 35.5885L37.3697 44.1225Z" fill="#ffffff"/>
</g>
</g>
</g>
</g>
</g>
</svg>
