<svg xmlns="http://www.w3.org/2000/svg" xmlns:xlink="http://www.w3.org/1999/xlink" xmlns:inkscape="http://www.inkscape.org/namespaces/inkscape" version="1.1" width="81.5" height="81.5" viewBox="0 0 81.5 81.5">
<defs>
<clipPath id="clip_1">
<path transform="matrix(1,0,0,-1,0,81.5)" d="M0 0H81.5V81.5H0Z"/>
</clipPath>
<clipPath id="clip_2">
<path transform="matrix(1,0,0,-1,0,81.5)" d="M-82 0H82V163H-82Z"/>
</clipPath>
<clipPath id="clip_3">
<path transform="matrix(1,0,0,-1,0,81.5)" d="M0 .0240936H81.4767V82H0Z"/>
</clipPath>
<clipPath id="clip_4">
<path transform="matrix(1,0,0,-1,0,81.5)" d="M0 0H81.5V81.5H0Z"/>
</clipPath>
<clipPath id="clip_5">
<path transform="matrix(1,0,0,-1,0,81.5)" d="M-81 0H81V163H-81Z"/>
</clipPath>
<clipPath id="clip_6">
<path transform="matrix(1,0,0,-1,0,81.5)" d="M0 .523926H80.9763V81.99999H0Z"/>
</clipPath>
<clipPath id="clip_7">
<path transform="matrix(1,0,0,-1,0,81.5)" d="M0 0H81.5V81.5H0Z"/>
</clipPath>
<clipPath id="clip_8">
<path transform="matrix(1,0,0,-1,0,81.5)" d="M12 33H49V70H12Z"/>
</clipPath>
<clipPath id="clip_9">
<path transform="matrix(1,0,0,-1,0,81.5)" d="M12.4276 33.3304H48.1801V69.0706H12.4276Z"/>
</clipPath>
<clipPath id="clip_10">
<path transform="matrix(1,0,0,-1,0,81.5)" d="M0 0H81.5V81.5H0Z"/>
</clipPath>
<clipPath id="clip_11">
<path transform="matrix(1,0,0,-1,0,81.5)" d="M18 37H45V64H18Z"/>
</clipPath>
<clipPath id="clip_12">
<path transform="matrix(1,0,0,-1,0,81.5)" d="M18.4862 37.3773H44.1295V63.0129H18.4862Z"/>
</clipPath>
</defs>
<g>
<g clip-path="url(#clip_1)">
<g opacity=".06">
<g clip-path="url(#clip_2)">
<g clip-path="url(#clip_3)">
<path transform="matrix(1,0,0,-1,0,81.5)" d="M-1.4998 83.0002V159.9312C-21.9368 159.5472-41.0988 151.4172-55.5078 137.0082-69.9178 122.5992-78.0468 103.4372-78.4318 83.0002ZM78.4312 83.0002C78.0472 103.4362 69.9182 122.5982 55.5082 137.0082 41.0982 151.4172 21.9362 159.5472 1.5002 159.9312V83.0002ZM-78.4318 80.0002C-78.0468 59.5632-69.9178 40.4012-55.5078 25.9922-41.0988 11.5832-21.9368 3.4532-1.4998 3.0692V80.0002ZM1.5002 3.0692C21.9362 3.4532 41.0982 11.5822 55.5082 25.9922 69.9182 40.4022 78.0472 59.5642 78.4312 80.0002H1.5002ZM-.9998 .0242C-22.4038 .2862-42.5138 8.7552-57.6288 23.8712-72.7438 38.9852-81.2128 59.0942-81.4768 80.4942V82.5002C-81.2128 103.9062-72.7438 124.0152-57.6288 139.1292-42.5138 154.2452-22.4038 162.7142-1.0058 162.9762H1.0002C22.4042 162.7142 42.5142 154.2452 57.6292 139.1292 72.7442 124.0152 81.2132 103.9062 81.4772 82.5062V80.5002C81.2132 59.0942 72.7442 38.9852 57.6292 23.8712 42.5142 8.7552 22.4042 .2862 1.0062 .0242H1.0032Z" fill="#ffffff"/>
</g>
</g>
</g>
</g>
<g clip-path="url(#clip_4)">
<g opacity=".06">
<g clip-path="url(#clip_5)">
<g clip-path="url(#clip_6)">
<path transform="matrix(1,0,0,-1,0,81.5)" d="M-55.8612 25.6388C-71.0082 40.7858-78.6892 60.6048-78.9392 80.4998H-1.0002V2.5608C-20.8952 2.8108-40.7152 10.4918-55.8612 25.6388M-55.8612 137.3618C-40.7152 152.5088-20.8952 160.1898-1.0002 160.4388V82.4998H-78.9392C-78.6892 102.3958-71.0082 122.2148-55.8612 137.3618M55.8618 137.3618C71.0088 122.2148 78.6898 102.3958 78.9388 82.4998H.9998V160.4388C20.8958 160.1898 40.7138 152.5088 55.8618 137.3618M55.8618 25.6388C40.7138 10.4918 20.8958 2.8108 .9998 2.5608V80.4998H78.9388C78.6898 60.6048 71.0088 40.7858 55.8618 25.6388M57.2758 24.2238V24.2238C72.8378 39.7858 80.7258 60.1048 80.9768 80.4998V82.4998C80.7258 102.8948 72.8378 123.2138 57.2758 138.7758 41.7138 154.3378 21.3948 162.2258 .9998 162.4758H-1.0002C-21.3952 162.2258-41.7142 154.3378-57.2752 138.7758-72.8382 123.2138-80.7252 102.8948-80.9762 82.4998V80.4998C-80.7252 60.1048-72.8382 39.7858-57.2752 24.2238-41.7142 8.6628-21.3952 .7738-1.0002 .5238H.9998C21.3948 .7738 41.7138 8.6628 57.2758 24.2238" fill="#ffffff"/>
</g>
</g>
</g>
</g>
<g clip-path="url(#clip_7)">
<g opacity=".07">
<g clip-path="url(#clip_8)">
<g clip-path="url(#clip_9)">
<path transform="matrix(1,0,0,-1,0,81.5)" d="M17.1574 48.1012C20.4724 50.1142 23.5324 52.5162 26.2534 55.2382 28.9714 57.9592 31.3704 61.0222 33.3814 64.3402L36.2494 69.0702 48.1794 33.3302 12.4284 45.2292Z" fill="#ffffff"/>
</g>
</g>
</g>
</g>
<g clip-path="url(#clip_10)">
<g opacity=".08">
<g clip-path="url(#clip_11)">
<g clip-path="url(#clip_12)">
<path transform="matrix(1,0,0,-1,0,81.5)" d="M35.5715 63.0129C33.5035 59.5989 31.0085 56.3739 28.0645 53.4289 25.1205 50.4819 21.8975 47.9839 18.4865 45.9119L44.1295 37.3769Z" fill="#ffffff"/>
</g>
</g>
</g>
</g>
</g>
</svg>
