<svg xmlns="http://www.w3.org/2000/svg" xmlns:xlink="http://www.w3.org/1999/xlink" xmlns:inkscape="http://www.inkscape.org/namespaces/inkscape" version="1.1" width="81.5" height="81.5" viewBox="0 0 81.5 81.5">
<defs>
<clipPath id="clip_1">
<path transform="matrix(1,0,0,-1,0,81.5)" d="M0 0H81.5V81.5H0Z"/>
</clipPath>
<clipPath id="clip_2">
<path transform="matrix(1,0,0,-1,0,81.5)" d="M0 0H163V163H0Z"/>
</clipPath>
<clipPath id="clip_3">
<path transform="matrix(1,0,0,-1,0,81.5)" d="M.0232544 .0237427H82.00001V82H.0232544Z"/>
</clipPath>
<clipPath id="clip_4">
<path transform="matrix(1,0,0,-1,0,81.5)" d="M0 0H81.5V81.5H0Z"/>
</clipPath>
<clipPath id="clip_5">
<path transform="matrix(1,0,0,-1,0,81.5)" d="M0 0H163V163H0Z"/>
</clipPath>
<clipPath id="clip_6">
<path transform="matrix(1,0,0,-1,0,81.5)" d="M.52359 .52359H82V82H.52359Z"/>
</clipPath>
<clipPath id="clip_7">
<path transform="matrix(1,0,0,-1,0,81.5)" d="M0 0H81.5V81.5H0Z"/>
</clipPath>
<clipPath id="clip_8">
<path transform="matrix(1,0,0,-1,0,81.5)" d="M33 33H70V70H33Z"/>
</clipPath>
<clipPath id="clip_9">
<path transform="matrix(1,0,0,-1,0,81.5)" d="M33.3301 33.3192H69.072299V69.072H33.3301Z"/>
</clipPath>
<clipPath id="clip_10">
<path transform="matrix(1,0,0,-1,0,81.5)" d="M0 0H81.5V81.5H0Z"/>
</clipPath>
<clipPath id="clip_11">
<path transform="matrix(1,0,0,-1,0,81.5)" d="M37 37H64V64H37Z"/>
</clipPath>
<clipPath id="clip_12">
<path transform="matrix(1,0,0,-1,0,81.5)" d="M37.377 37.3704H63.012598V63.0137H37.377Z"/>
</clipPath>
</defs>
<g>
<g clip-path="url(#clip_1)">
<g opacity=".06">
<g clip-path="url(#clip_2)">
<g clip-path="url(#clip_3)">
<path transform="matrix(1,0,0,-1,0,81.5)" d="M79.9998 82.9998V159.9308C59.5628 159.5468 40.4008 151.4168 25.9918 137.0078 11.5818 122.5988 3.4528 103.4368 3.0678 82.9998ZM159.9308 82.9998C159.5468 103.4358 151.4178 122.5978 137.0078 137.0078 122.5978 151.4168 103.4358 159.5468 82.9998 159.9308V82.9998ZM3.0678 79.9998C3.4528 59.5628 11.5818 40.4008 25.9918 25.9918 40.4008 11.5828 59.5628 3.4528 79.9998 3.0688V79.9998ZM82.9998 3.0688C103.4358 3.4528 122.5978 11.5818 137.0078 25.9918 151.4178 40.4018 159.5468 59.5638 159.9308 79.9998H82.9998ZM80.4998 .0238C59.0958 .2858 38.9858 8.7548 23.8708 23.8708 8.7558 38.9848 .2868 59.0938 .0228 80.4938V82.4998C.2868 103.9058 8.7558 124.0148 23.8708 139.1288 38.9858 154.2448 59.0958 162.7138 80.4938 162.9758H82.4998C103.9038 162.7138 124.0138 154.2448 139.1288 139.1288 154.2438 124.0148 162.7128 103.9058 162.9768 82.5058V80.4998C162.7128 59.0938 154.2438 38.9848 139.1288 23.8708 124.0138 8.7548 103.9038 .2858 82.5058 .0238H82.5028Z" fill="#ffffff"/>
</g>
</g>
</g>
</g>
<g clip-path="url(#clip_4)">
<g opacity=".06">
<g clip-path="url(#clip_5)">
<g clip-path="url(#clip_6)">
<path transform="matrix(1,0,0,-1,0,81.5)" d="M25.6385 25.6385C10.4915 40.7855 2.8105 60.6045 2.5605 80.4995H80.4995V2.5605C60.6045 2.8105 40.7845 10.4915 25.6385 25.6385M25.6385 137.3615C40.7845 152.5085 60.6045 160.1895 80.4995 160.4385V82.4995H2.5605C2.8105 102.3955 10.4915 122.2145 25.6385 137.3615M137.3615 137.3615C152.5085 122.2145 160.1895 102.3955 160.4385 82.4995H82.4995V160.4385C102.3955 160.1895 122.2135 152.5085 137.3615 137.3615M137.3615 25.6385C122.2135 10.4915 102.3955 2.8105 82.4995 2.5605V80.4995H160.4385C160.1895 60.6045 152.5085 40.7855 137.3615 25.6385M138.7755 24.2235V24.2235C154.3375 39.7855 162.2255 60.1045 162.4765 80.4995V82.4995C162.2255 102.8945 154.3375 123.2135 138.7755 138.7755 123.2135 154.3375 102.8945 162.2255 82.4995 162.4755H80.4995C60.1045 162.2255 39.7855 154.3375 24.2245 138.7755 8.6615 123.2135 .7745 102.8945 .5235 82.4995V80.4995C.7745 60.1045 8.6615 39.7855 24.2245 24.2235 39.7855 8.6625 60.1045 .7735 80.4995 .5235H82.4995C102.8945 .7735 123.2135 8.6625 138.7755 24.2235" fill="#ffffff"/>
</g>
</g>
</g>
</g>
<g clip-path="url(#clip_7)">
<g opacity=".07">
<g clip-path="url(#clip_8)">
<g clip-path="url(#clip_9)">
<path transform="matrix(1,0,0,-1,0,81.5)" d="M45.2293 69.0721 48.1003 64.3431C50.1103 61.0341 52.5063 57.9791 55.2223 55.2631 57.9603 52.5261 61.0233 50.1281 64.3393 48.1191L69.0723 45.2511 33.3303 33.3191Z" fill="#ffffff"/>
</g>
</g>
</g>
</g>
<g clip-path="url(#clip_10)">
<g opacity=".08">
<g clip-path="url(#clip_11)">
<g clip-path="url(#clip_12)">
<path transform="matrix(1,0,0,-1,0,81.5)" d="M63.0125 45.9285C59.5995 47.9965 56.3735 50.4915 53.4275 53.4355 50.4815 56.3795 47.9835 59.6015 45.9115 63.0135L37.3765 37.3705Z" fill="#ffffff"/>
</g>
</g>
</g>
</g>
</g>
</svg>
