<svg xmlns="http://www.w3.org/2000/svg" xmlns:xlink="http://www.w3.org/1999/xlink" xmlns:inkscape="http://www.inkscape.org/namespaces/inkscape" version="1.1" width="81.5" height="81.5" viewBox="0 0 81.5 81.5">
<defs>
<clipPath id="clip_1">
<path transform="matrix(1,0,0,-1,0,81.5)" d="M0 0H81.5V81.5H0Z"/>
</clipPath>
<clipPath id="clip_2">
<path transform="matrix(1,0,0,-1,0,81.5)" d="M-82-82H82V82H-82Z"/>
</clipPath>
<clipPath id="clip_3">
<path transform="matrix(1,0,0,-1,0,81.5)" d="M0 0H81.4764V81.4749H0Z"/>
</clipPath>
<clipPath id="clip_4">
<path transform="matrix(1,0,0,-1,0,81.5)" d="M0 0H81.5V81.5H0Z"/>
</clipPath>
<clipPath id="clip_5">
<path transform="matrix(1,0,0,-1,0,81.5)" d="M-81-81H81V81H-81Z"/>
</clipPath>
<clipPath id="clip_6">
<path transform="matrix(1,0,0,-1,0,81.5)" d="M0 0H80.976V80.975H0Z"/>
</clipPath>
<clipPath id="clip_7">
<path transform="matrix(1,0,0,-1,0,81.5)" d="M0 0H81.5V81.5H0Z"/>
</clipPath>
<clipPath id="clip_8">
<path transform="matrix(1,0,0,-1,0,81.5)" d="M12 12H49V49H12Z"/>
</clipPath>
<clipPath id="clip_9">
<path transform="matrix(1,0,0,-1,0,81.5)" d="M12.4273 12.4266H48.1695V48.1794H12.4273Z"/>
</clipPath>
<clipPath id="clip_10">
<path transform="matrix(1,0,0,-1,0,81.5)" d="M0 0H81.5V81.5H0Z"/>
</clipPath>
<clipPath id="clip_11">
<path transform="matrix(1,0,0,-1,0,81.5)" d="M18 18H45V45H18Z"/>
</clipPath>
<clipPath id="clip_12">
<path transform="matrix(1,0,0,-1,0,81.5)" d="M18.487 18.4849H44.122598V44.128099H18.487Z"/>
</clipPath>
</defs>
<g>
<g clip-path="url(#clip_1)">
<g opacity=".06">
<g clip-path="url(#clip_2)">
<g clip-path="url(#clip_3)">
<path transform="matrix(1,0,0,-1,0,81.5)" d="M-1.5002 1.4988V78.4298C-21.9372 78.0458-41.0992 69.9158-55.5082 55.5068-69.9182 41.0978-78.0472 21.9358-78.4322 1.4988ZM78.4308 1.4988C78.0468 21.9348 69.9178 41.0968 55.5078 55.5068 41.0978 69.9158 21.9358 78.0458 1.4998 78.4298V1.4988ZM-78.4322-1.5012C-78.0472-21.9382-69.9182-41.1002-55.5082-55.5092-41.0992-69.9182-21.9372-78.0482-1.5002-78.4322V-1.5012ZM1.4998-78.4322C21.9358-78.0482 41.0978-69.9192 55.5078-55.5092 69.9178-41.0992 78.0468-21.9372 78.4308-1.5012H1.4998ZM-1.0002-81.4772C-22.4042-81.2152-42.5142-72.7462-57.6292-57.6302-72.7442-42.5162-81.2132-22.4072-81.4772-1.0072V.9988C-81.2132 22.4048-72.7442 42.5138-57.6292 57.6278-42.5142 72.7438-22.4042 81.2128-1.0062 81.4748H.9998C22.4038 81.2128 42.5138 72.7438 57.6288 57.6278 72.7438 42.5138 81.2128 22.4048 81.4768 1.0048V-1.0012C81.2128-22.4072 72.7438-42.5162 57.6288-57.6302 42.5138-72.7462 22.4038-81.2152 1.0058-81.4772H1.0028Z" fill="#ffffff"/>
</g>
</g>
</g>
</g>
<g clip-path="url(#clip_4)">
<g opacity=".06">
<g clip-path="url(#clip_5)">
<g clip-path="url(#clip_6)">
<path transform="matrix(1,0,0,-1,0,81.5)" d="M-55.8615-55.8625C-71.0085-40.7155-78.6895-20.8965-78.9395-1.0015H-1.0005V-78.9405C-20.8955-78.6905-40.7155-71.0095-55.8615-55.8625M-55.8615 55.8605C-40.7155 71.0075-20.8955 78.6885-1.0005 78.9375V.9985H-78.9395C-78.6895 20.8945-71.0085 40.7135-55.8615 55.8605M55.8615 55.8605C71.0085 40.7135 78.6895 20.8945 78.9385 .9985H.9995V78.9375C20.8955 78.6885 40.7135 71.0075 55.8615 55.8605M55.8615-55.8625C40.7135-71.0095 20.8955-78.6905 .9995-78.9405V-1.0015H78.9385C78.6895-20.8965 71.0085-40.7155 55.8615-55.8625M57.2755-57.2775V-57.2775C72.8375-41.7155 80.7255-21.3965 80.9765-1.0015V.9985C80.7255 21.3935 72.8375 41.7125 57.2755 57.2745 41.7135 72.8365 21.3945 80.7245 .9995 80.9745H-1.0005C-21.3955 80.7245-41.7145 72.8365-57.2755 57.2745-72.8385 41.7125-80.7255 21.3935-80.9765 .9985V-1.0015C-80.7255-21.3965-72.8385-41.7155-57.2755-57.2775-41.7145-72.8385-21.3955-80.7275-1.0005-80.9775H.9995C21.3945-80.7275 41.7135-72.8385 57.2755-57.2775" fill="#ffffff"/>
</g>
</g>
</g>
</g>
<g clip-path="url(#clip_7)">
<g opacity=".07">
<g clip-path="url(#clip_8)">
<g clip-path="url(#clip_9)">
<path transform="matrix(1,0,0,-1,0,81.5)" d="M48.1697 48.1795 36.2707 12.4265 33.3987 17.1555C31.3897 20.4645 28.9927 23.5195 26.2767 26.2355 23.5387 28.9725 20.4767 31.3705 17.1597 33.3795L12.4277 36.2475Z" fill="#ffffff"/>
</g>
</g>
</g>
</g>
<g clip-path="url(#clip_10)">
<g opacity=".08">
<g clip-path="url(#clip_11)">
<g clip-path="url(#clip_12)">
<path transform="matrix(1,0,0,-1,0,81.5)" d="M18.4871 35.5701C21.9001 33.5021 25.1261 31.0071 28.0721 28.0631 31.0181 25.1191 33.5161 21.8961 35.5881 18.4851L44.1231 44.1281Z" fill="#ffffff"/>
</g>
</g>
</g>
</g>
</g>
</svg>
