<svg xmlns="http://www.w3.org/2000/svg" xmlns:xlink="http://www.w3.org/1999/xlink" xmlns:inkscape="http://www.inkscape.org/namespaces/inkscape" version="1.1" width="474.816" height="64.2221" viewBox="0 0 474.816 64.2221">
<defs>
<clipPath id="clip_1">
<path transform="matrix(1,0,0,-1,0,64.2221)" d="M0 64.222H474.816V0H0Z"/>
</clipPath>
</defs>
<g>
<g clip-path="url(#clip_1)">
<path transform="matrix(1,0,0,-1,9.2804,.16329956)" d="M0 0 .067-38.424C.076-43.708 .946-47.57 2.676-50.01 5.258-53.537 8.886-55.296 13.56-55.288 18.26-55.279 21.895-53.507 24.464-49.971 26.186-47.604 27.042-43.739 27.032-38.375L26.966 .049 36.246 .065 36.317-40.908C36.329-47.387 34.32-52.728 30.292-56.931 25.759-61.612 20.187-63.959 13.575-63.971 6.963-63.982 1.396-61.656-3.126-56.99-7.17-52.803-9.198-47.469-9.209-40.989L-9.28-.017Z" fill="#ff8500"/>
<path transform="matrix(1,0,0,-1,125.5538,32.135999)" d="M0 0C0-6.798 2.265-12.388 6.796-16.769 11.301-21.15 16.503-23.341 22.404-23.341 28.805-23.341 34.205-21.11 38.604-16.649 43.003-12.135 45.203-6.639 45.203-.159 45.203 6.399 43.03 11.896 38.683 16.331 34.363 20.792 29.016 23.022 22.641 23.022 16.292 23.022 10.932 20.792 6.559 16.331 2.186 11.923 0 6.479 0 0M-9.286 .119C-9.286 8.776-6.138 16.211 .158 22.425 6.427 28.639 13.961 31.745 22.759 31.745 31.452 31.745 38.907 28.612 45.124 22.345 51.367 16.078 54.488 8.551 54.488-.239 54.488-9.081 51.354-16.583 45.084-22.743 38.789-28.931 31.189-32.024 22.285-32.024 14.409-32.024 7.336-29.275 1.067-23.779-5.835-17.698-9.286-9.732-9.286 .119" fill="#ff8500"/>
<path transform="matrix(1,0,0,-1,364.856,32.135999)" d="M0 0C0-6.798 2.266-12.388 6.797-16.769 11.301-21.15 16.504-23.341 22.404-23.341 28.806-23.341 34.206-21.11 38.604-16.649 43.004-12.135 45.203-6.639 45.203-.159 45.203 6.399 43.03 11.896 38.684 16.331 34.363 20.792 29.017 23.022 22.642 23.022 16.293 23.022 10.933 20.792 6.56 16.331 2.187 11.923 0 6.479 0 0M-9.285 .119C-9.285 8.776-6.138 16.211 .158 22.425 6.428 28.639 13.962 31.745 22.76 31.745 31.453 31.745 38.907 28.612 45.124 22.345 51.367 16.078 54.489 8.551 54.489-.239 54.489-9.081 51.354-16.583 45.085-22.743 38.789-28.931 31.189-32.024 22.286-32.024 14.409-32.024 7.337-29.275 1.067-23.779-5.834-17.698-9.285-9.732-9.285 .119" fill="#ff8500"/>
<path transform="matrix(1,0,0,-1,0,64.2221)" d="M474.816 63.993H465.535V.11399841H474.816Z" fill="#ff8500"/>
<path transform="matrix(1,0,0,-1,335.6021,7.3997)" d="M0 0C-4.277 4.401-9.484 6.702-15.599 6.958V7.009H-20.673-29.396-33.358C-39.962 7.004-45.532 4.668-50.068 0-54.104-4.196-56.122-9.533-56.122-16.013V-56.822H-46.842V-18.562C-46.842-13.197-45.979-9.334-44.253-6.971-41.681-3.444-38.049-1.68-33.358-1.674V-1.714H-29.396V-2.271-56.615H-20.673V-1.714H-15.903C-11.607-1.914-8.236-3.652-5.815-6.971-4.09-9.334-3.227-13.197-3.227-18.562V-56.822H6.054V-16.013C6.054-9.533 4.036-4.196 0 0" fill="#ff8500"/>
<path transform="matrix(1,0,0,-1,262.3443,54.3684)" d="M0 0H-11.444C-16.809 0-20.672 .885-23.035 2.653-26.562 5.29-28.326 9.012-28.332 13.818H-28.292V17.881H-27.734 0V26.82H-28.292V31.709C-28.092 36.111-26.354 39.567-23.035 42.048-20.672 43.816-16.809 44.701-11.444 44.701H0V54.213H-13.993C-20.473 54.213-25.81 52.145-30.006 48.008-34.407 43.625-36.708 38.287-36.964 32.021H-37.015V26.82 17.881 13.818C-37.01 7.052-34.674 1.343-30.006-3.307-25.81-7.443-20.473-9.512-13.993-9.512H0Z" fill="#ff8500"/>
<path transform="matrix(1,0,0,-1,71.2267,64.173099)" d="M0 0-.086 28.724H.472 28.206V37.446H-.086V42.216C.114 46.512 1.853 49.883 5.171 52.304 7.534 54.029 11.398 54.893 16.762 54.893H28.206V64.173H14.213C7.733 64.173 2.396 62.155-1.799 58.119-6.201 53.842-8.502 48.635-8.758 42.521H-8.809V37.446 28.724L-8.723 0Z" fill="#ff8500"/>
<path transform="matrix(1,0,0,-1,439.8404,.22879792)" d="M0 0V-37.803C0-43.167-.862-47.03-2.589-49.394-5.161-52.92-8.792-54.685-13.482-54.69V-63.373C-6.88-63.368-1.31-61.032 3.227-56.364 7.263-52.168 9.281-46.831 9.281-40.352V0Z" fill="#ff8500"/>
</g>
</g>
</svg>
