<svg xmlns="http://www.w3.org/2000/svg" xmlns:xlink="http://www.w3.org/1999/xlink" xmlns:inkscape="http://www.inkscape.org/namespaces/inkscape" version="1.1" width="163.135" height="48" viewBox="0 0 163.135 48">
<defs>
<clipPath id="clip_1">
<path transform="matrix(1,0,0,-1,0,48)" d="M0 0H163.135V48H0Z"/>
</clipPath>
<clipPath id="clip_2">
<path transform="matrix(1,0,0,-1,0,48)" d="M0 0H164V48H0Z"/>
</clipPath>
<clipPath id="clip_3">
<path transform="matrix(1,0,0,-1,0,48)" d="M0 0H163.135V48H0Z"/>
</clipPath>
<clipPath id="clip_4">
<path transform="matrix(1,0,0,-1,0,48)" d="M0 0H163.135V48H0Z"/>
</clipPath>
<clipPath id="clip_5">
<path transform="matrix(1,0,0,-1,0,48)" d="M8 8H156V40H8Z"/>
</clipPath>
<clipPath id="clip_6">
<path transform="matrix(1,0,0,-1,0,48)" d="M8 8H155.135V40H8Z"/>
</clipPath>
</defs>
<g>
<g clip-path="url(#clip_1)">
<g opacity=".5">
<g clip-path="url(#clip_2)">
<g clip-path="url(#clip_3)">
<path transform="matrix(1,0,0,-1,0,48)" d="M23 0C10.318 0 0 10.317 0 23V25C0 37.682 10.318 48 23 48H140.135C152.817 48 163.135 37.682 163.135 25V23C163.135 10.317 152.817 0 140.135 0Z" fill="#4682ff"/>
</g>
</g>
</g>
</g>
<g clip-path="url(#clip_4)">
<g opacity=".75">
<g clip-path="url(#clip_5)">
<g clip-path="url(#clip_6)">
<path transform="matrix(1,0,0,-1,0,48)" d="M23 8C14.716 8 8 14.716 8 23V25C8 33.284 14.716 40 23 40H140.135C148.419 40 155.135 33.284 155.135 25V23C155.135 14.716 148.419 8 140.135 8Z" fill="#ffffff"/>
</g>
</g>
</g>
</g>
</g>
</svg>
