<svg xmlns="http://www.w3.org/2000/svg" xmlns:xlink="http://www.w3.org/1999/xlink" xmlns:inkscape="http://www.inkscape.org/namespaces/inkscape" version="1.1" width="78.9165" height="48" viewBox="0 0 78.9165 48">
<defs>
<clipPath id="clip_1">
<path transform="matrix(1,0,0,-1,0,48)" d="M0 48H78.917V0H0Z"/>
</clipPath>
<clipPath id="clip_2">
<path transform="matrix(1,0,0,-1,0,48)" d="M0 0H78.9165V48H0Z"/>
</clipPath>
<clipPath id="clip_3">
<path transform="matrix(1,0,0,-1,0,48)" d="M38.9165 8H70.9165V40H38.9165Z"/>
</clipPath>
</defs>
<g>
<g inkscape:groupmode="layer" inkscape:label="Layer 1">
<g clip-path="url(#clip_1)">
<g opacity=".5">
<g clip-path="url(#clip_2)">
<path transform="matrix(1,0,0,-1,74.4946,16.8447)" d="M0 0-32 16C-33.13 16.564-34.355 16.845-35.578 16.845-37.04 16.845-38.499 16.444-39.784 15.65-42.143 14.192-43.578 11.617-43.578 8.845V5.547H-66.495C-70.913 5.547-74.495 1.965-74.495-2.453V-11.857C-74.495-16.275-70.913-19.857-66.495-19.857H-43.578V-23.155C-43.578-25.928-42.143-28.503-39.784-29.96-38.499-30.755-37.041-31.155-35.578-31.155-34.355-31.155-33.13-30.875-32-30.311L0-14.311C2.71-12.956 4.422-10.186 4.422-7.155 4.422-4.125 2.71-1.355 0 0" fill="#4682ff"/>
</g>
</g>
<g opacity=".75">
<g clip-path="url(#clip_3)">
<path transform="matrix(1,0,0,-1,38.9165,40)" d="M0 0 32 16 0 32Z" fill="#ffffff"/>
</g>
</g>
</g>
<path transform="matrix(1,0,0,-1,70.9165,24)" d="M0 0-32 16V4.702H-62.917V-4.702H-32V-16Z" fill="#8dff43"/>
</g>
</g>
</svg>
