<svg xmlns="http://www.w3.org/2000/svg" xmlns:xlink="http://www.w3.org/1999/xlink" xmlns:inkscape="http://www.inkscape.org/namespaces/inkscape" version="1.1" width="32" height="32" viewBox="0 0 32 32">
<defs>
<clipPath id="clip_1">
<path transform="matrix(1,0,0,-1,0,32)" d="M0 0H32V32H0Z"/>
</clipPath>
<clipPath id="clip_2">
<path transform="matrix(1,0,0,-1,0,32)" d="M0 0H32V32H0Z"/>
</clipPath>
<clipPath id="clip_3">
<path transform="matrix(1,0,0,-1,0,32)" d="M0 0H32V32H0Z"/>
</clipPath>
<clipPath id="clip_4">
<path transform="matrix(1,0,0,-1,0,32)" d="M0 0H32V32H0Z"/>
</clipPath>
<clipPath id="clip_5">
<path transform="matrix(1,0,0,-1,0,32)" d="M14 6H26V26H14Z"/>
</clipPath>
<clipPath id="clip_6">
<path transform="matrix(1,0,0,-1,0,32)" d="M14.5847 6.968H25.8625V25.2451H14.5847Z"/>
</clipPath>
<clipPath id="clip_7">
<path transform="matrix(1,0,0,-1,0,32)" d="M0 0H32V32H0Z"/>
</clipPath>
<clipPath id="clip_8">
<path transform="matrix(1,0,0,-1,0,32)" d="M4 3H12V17H4Z"/>
</clipPath>
<clipPath id="clip_9">
<path transform="matrix(1,0,0,-1,0,32)" d="M4.09592 3.86426H11.6157V16.7776H4.09592Z"/>
</clipPath>
</defs>
<g>
<g clip-path="url(#clip_1)">
<g opacity=".2">
<g clip-path="url(#clip_2)">
<g clip-path="url(#clip_3)">
<path transform="matrix(1,0,0,-1,0,32)" d="M0 0H32V32H0Z" fill="#ffff00"/>
</g>
</g>
</g>
</g>
<g clip-path="url(#clip_4)">
<g opacity=".5">
<g clip-path="url(#clip_5)">
<g clip-path="url(#clip_6)">
<path transform="matrix(1,0,0,-1,0,32)" d="M20.0034 13.3008V21.0788L17.9884 13.3008ZM24.5644 25.2448V13.3008H25.8624V10.1858H24.5644V6.9678H20.0034V10.1858H14.5844V13.3008L18.5244 25.2448Z"/>
</g>
</g>
</g>
</g>
<g clip-path="url(#clip_7)">
<g opacity=".75">
<g clip-path="url(#clip_8)">
<g clip-path="url(#clip_9)">
<path transform="matrix(1,0,0,-1,0,32)" d="M11.6123 14.8867C11.6313 14.7827 11.5743 14.6577 11.4433 14.5067 11.3113 14.3557 11.1703 14.2667 11.0203 14.2387 10.9073 14.2197 10.7383 14.2517 10.5123 14.3367 10.2403 14.4307 10.0383 14.4877 9.9063 14.5067 9.5683 14.5427 9.1503 14.4917 8.6523 14.3507 8.0323 14.1817 7.4913 13.9087 7.0313 13.5337V11.9967C7.4253 12.1757 7.8063 12.2657 8.1733 12.2657 8.7083 12.2657 9.3663 11.9647 10.1463 11.3627 10.9263 10.7617 11.3163 10.2257 11.3163 9.7567 11.3163 8.2997 10.9473 6.9527 10.2103 5.7177 9.4713 4.4827 8.6523 3.8647 7.7503 3.8647 7.2893 3.8647 6.5753 4.2027 5.6083 4.8797 4.6393 5.5567 4.1363 6.0917 4.0993 6.4867 4.0803 6.6837 4.1363 6.8737 4.2683 7.0567 4.4003 7.2407 4.5603 7.3357 4.7473 7.3457 5.0393 7.3657 5.4433 7.1387 5.9603 6.6687 6.5243 6.1327 6.8243 5.8617 6.8623 5.8527 7.3513 6.1237 7.8483 6.7267 8.3563 7.6567 8.8443 8.5487 9.0893 9.2487 9.0893 9.7567 9.0893 10.0667 8.9393 10.2217 8.6373 10.2217 8.3563 10.2217 7.9703 10.0197 7.4823 9.6157 6.9933 9.2107 6.7353 9.0087 6.7073 9.0087 6.5193 8.9997 6.1663 9.1157 5.6503 9.3617 5.1333 9.6057 4.7763 9.8407 4.5793 10.0667 4.5133 10.1517 4.4803 10.2437 4.4803 10.3487 4.4803 10.3957 4.4913 10.4817 4.5153 10.6097 4.5383 10.7367 4.5503 10.8357 4.5503 10.9117V15.1557C4.5503 15.2957 4.6373 15.4367 4.8113 15.5767 4.9853 15.7177 5.1753 15.8077 5.3823 15.8457 5.4383 15.8547 5.5133 15.8427 5.6083 15.8097 5.7013 15.7767 5.7723 15.7607 5.8193 15.7607 5.8653 15.7607 5.9173 15.7747 5.9743 15.8027 6.6593 16.1127 7.4453 16.3577 8.3283 16.5357 8.9763 16.6677 9.4133 16.7287 9.6383 16.7197 9.7413 16.7377 9.8403 16.7557 9.9343 16.7757 10.0383 16.7847 10.1323 16.7617 10.2163 16.7037 10.4703 16.5177 10.7473 16.2307 11.0483 15.8457 11.3773 15.4317 11.5653 15.1127 11.6123 14.8867"/>
</g>
</g>
</g>
</g>
</g>
</svg>
