<svg xmlns="http://www.w3.org/2000/svg" xmlns:xlink="http://www.w3.org/1999/xlink" xmlns:inkscape="http://www.inkscape.org/namespaces/inkscape" version="1.1" width="32" height="32" viewBox="0 0 32 32">
<defs>
<clipPath id="clip_1">
<path transform="matrix(1,0,0,-1,0,32)" d="M0 0H32V32H0Z"/>
</clipPath>
<clipPath id="clip_2">
<path transform="matrix(1,0,0,-1,0,32)" d="M0 0H32V32H0Z"/>
</clipPath>
<clipPath id="clip_3">
<path transform="matrix(1,0,0,-1,0,32)" d="M0 0H32V32H0Z"/>
</clipPath>
<clipPath id="clip_4">
<path transform="matrix(1,0,0,-1,0,32)" d="M0 0H32V32H0Z"/>
</clipPath>
<clipPath id="clip_5">
<path transform="matrix(1,0,0,-1,0,32)" d="M15 6H24V26H15Z"/>
</clipPath>
<clipPath id="clip_6">
<path transform="matrix(1,0,0,-1,0,32)" d="M15.9039 6.86145H23.614399V25.1385H15.9039Z"/>
</clipPath>
<clipPath id="clip_7">
<path transform="matrix(1,0,0,-1,0,32)" d="M0 0H32V32H0Z"/>
</clipPath>
<clipPath id="clip_8">
<path transform="matrix(1,0,0,-1,0,32)" d="M5 3H13V17H5Z"/>
</clipPath>
<clipPath id="clip_9">
<path transform="matrix(1,0,0,-1,0,32)" d="M5.43028 3.60695H12.4222V16.238902H5.43028Z"/>
</clipPath>
</defs>
<g>
<g clip-path="url(#clip_1)">
<g opacity=".6">
<g clip-path="url(#clip_2)">
<g clip-path="url(#clip_3)">
<path transform="matrix(1,0,0,-1,0,32)" d="M0 0H32V32H0Z" fill="#ff0000"/>
</g>
</g>
</g>
</g>
<g clip-path="url(#clip_4)">
<g opacity=".7">
<g clip-path="url(#clip_5)">
<g clip-path="url(#clip_6)">
<path transform="matrix(1,0,0,-1,0,32)" d="M23.6143 25.1387V6.8617H19.0533V16.6597C19.0533 18.0757 19.0193 18.9257 18.9523 19.2117 18.8843 19.4977 18.6973 19.7137 18.3933 19.8617 18.0883 20.0077 17.4093 20.0807 16.3553 20.0807H15.9043V22.2107C18.1093 22.6867 19.7833 23.6607 20.9273 25.1387Z" fill="#ffffff"/>
</g>
</g>
</g>
</g>
<g clip-path="url(#clip_7)">
<g opacity=".8">
<g clip-path="url(#clip_8)">
<g clip-path="url(#clip_9)">
<path transform="matrix(1,0,0,-1,0,32)" d="M12.2812 13.1074C12.2152 12.4494 11.7882 11.6604 10.9982 10.7404 11.9472 9.9404 12.4222 9.0294 12.4222 8.0054 12.4222 6.9524 11.9572 5.9414 11.0272 4.9744 10.1802 4.1104 9.3872 3.6544 8.6452 3.6074 8.3432 3.5884 7.7282 3.9554 6.7982 4.7064 5.8962 5.4394 5.4402 5.9004 5.4302 6.0884 5.4222 6.3044 5.5252 6.5024 5.7412 6.6804 5.9572 6.8584 6.1632 6.9434 6.3612 6.9344 6.4932 6.9244 6.7042 6.7514 6.9952 6.4124 7.2862 6.0744 7.5542 5.8804 7.7992 5.8344 8.1842 5.7504 8.7052 6.1394 9.3642 7.0034 9.9922 7.8224 10.3082 8.4274 10.3082 8.8224 10.3082 8.9924 10.1992 9.0774 9.9832 9.0774 9.8332 9.0774 9.6552 9.0014 9.4482 8.8504 9.2972 8.7484 9.1492 8.6414 9.0042 8.5344 8.8582 8.4244 8.7152 8.3804 8.5742 8.4004 8.4142 8.4184 8.1582 8.5684 7.8052 8.8504 7.4532 9.1324 7.1642 9.4244 6.9392 9.7244 6.8922 9.7904 6.8682 9.8664 6.8682 9.9504 6.8682 10.2134 6.9952 10.4014 7.2492 10.5134 7.6062 10.6734 8.0382 11.0114 8.5462 11.5294 9.2792 12.2904 9.7352 13.0984 9.9132 13.9534 9.5372 13.8694 9.1192 13.5184 8.6582 12.9034 8.1982 12.2874 7.9122 11.9614 7.7992 11.9234 7.6202 11.8574 7.2802 11.9704 6.7772 12.2624 6.2742 12.5534 5.9482 12.8114 5.7972 13.0384 5.7692 13.0744 5.7552 13.1214 5.7552 13.1774 5.7552 13.3284 5.8822 13.5444 6.1352 13.8274 6.9152 14.7014 7.4512 15.2594 7.7422 15.5034 8.3532 16.0194 8.9352 16.2644 9.4902 16.2364 10.1112 16.1994 10.7472 15.8184 11.4002 15.0954 12.0532 14.3724 12.3472 13.7094 12.2812 13.1074"/>
</g>
</g>
</g>
</g>
</g>
</svg>
