<svg xmlns="http://www.w3.org/2000/svg" xmlns:xlink="http://www.w3.org/1999/xlink" xmlns:inkscape="http://www.inkscape.org/namespaces/inkscape" version="1.1" width="32" height="32" viewBox="0 0 32 32">
<defs>
<clipPath id="clip_1">
<path transform="matrix(1,0,0,-1,0,32)" d="M0 0H32V32H0Z"/>
</clipPath>
<clipPath id="clip_2">
<path transform="matrix(1,0,0,-1,0,32)" d="M0 0H32V32H0Z"/>
</clipPath>
<clipPath id="clip_3">
<path transform="matrix(1,0,0,-1,0,32)" d="M0 0H32V32H0Z"/>
</clipPath>
<clipPath id="clip_4">
<path transform="matrix(1,0,0,-1,0,32)" d="M0 0H32V32H0Z"/>
</clipPath>
<clipPath id="clip_5">
<path transform="matrix(1,0,0,-1,0,32)" d="M0 0H32V32H0Z"/>
</clipPath>
<clipPath id="clip_6">
<path transform="matrix(1,0,0,-1,0,32)" d="M0 0H32V32H0Z"/>
</clipPath>
<clipPath id="clip_7">
<path transform="matrix(1,0,0,-1,0,32)" d="M15 6H26V26H15Z"/>
</clipPath>
<clipPath id="clip_8">
<path transform="matrix(1,0,0,-1,0,32)" d="M15.1186 6.40688H25.471402V25.0339H15.1186Z"/>
</clipPath>
</defs>
<g>
<g clip-path="url(#clip_1)">
<g>
<g clip-path="url(#clip_2)">
<g clip-path="url(#clip_3)">
<g style="mix-blend-mode:color">
<g clip-path="url(#clip_4)">
<g clip-path="url(#clip_5)">
<path transform="matrix(1,0,0,-1,0,32)" d="M0 0H32V32H0Z" fill="#00ff00"/>
</g>
</g>
</g>
</g>
<g clip-path="url(#clip_6)">
<g opacity=".5">
<g clip-path="url(#clip_7)">
<g clip-path="url(#clip_8)">
<path transform="matrix(1,0,0,-1,0,32)" d="M24.6255 25.0342V22.1102H19.2615V19.0062C19.9325 19.8412 20.7965 20.2592 21.8525 20.2592 23.0445 20.2592 23.9455 19.9072 24.5565 19.2032 25.1665 18.4992 25.4715 17.1462 25.4715 15.1442V12.5372C25.4715 11.2422 25.4125 10.2922 25.2945 9.6862 25.1765 9.0802 24.9255 8.5192 24.5405 8.0042 24.1545 7.4882 23.6175 7.0942 22.9285 6.8192 22.2395 6.5442 21.3995 6.4072 20.4075 6.4072 19.2935 6.4072 18.3125 6.6122 17.4635 7.0222 16.6135 7.4322 16.0105 8.0442 15.6535 8.8562 15.2965 9.6692 15.1185 10.9272 15.1185 12.6272V13.6212H19.4435V12.4802C19.4435 11.2992 19.4825 10.4602 19.5615 9.9632 19.6405 9.4662 19.9115 9.2182 20.3755 9.2182 20.5895 9.2182 20.7625 9.2892 20.8945 9.4322 21.0265 9.5752 21.0985 9.7292 21.1085 9.8952 21.1195 10.0602 21.1315 10.7792 21.1465 12.0522V15.6752C21.1465 16.3602 21.0785 16.8272 20.9425 17.0752 20.8075 17.3232 20.5825 17.4472 20.2685 17.4472 20.0685 17.4472 19.9005 17.3842 19.7655 17.2562 19.6295 17.1282 19.5425 16.9902 19.5025 16.8442 19.4635 16.6972 19.4435 16.3562 19.4435 15.8222H15.1615L15.3435 25.0342Z"/>
</g>
</g>
</g>
<path transform="matrix(1,0,0,-1,0,32)" d="M9.4727 6.0381C9.4727 5.8001 9.4017 5.5881 9.2607 5.4021 9.1197 5.2171 8.9417 5.1281 8.7257 5.1381 8.5747 5.1471 8.2087 5.3501 7.6257 5.7451 7.0437 6.1411 6.7467 6.4131 6.7377 6.5651 6.7377 6.6321 6.7517 6.7211 6.7807 6.8311 6.8087 6.9401 6.8227 7.0221 6.8227 7.0811V13.0801C6.8227 13.2981 6.6107 13.4551 6.1887 13.5511 5.7187 13.6641 5.4507 13.8221 5.3847 14.0221 5.3477 14.1271 5.3287 14.2261 5.3287 14.3221 5.3287 14.5311 5.4317 14.7791 5.6387 15.0651 5.9207 15.4541 6.0897 15.7081 6.1457 15.8211 6.2587 16.1921 6.3707 16.5641 6.4847 16.9351 6.6437 17.3541 6.9217 17.5641 7.3157 17.5641 7.7197 17.5641 8.1237 17.4391 8.5277 17.1931 8.9787 16.9171 9.2047 16.6021 9.2047 16.2511V6.7811C9.2047 6.6851 9.2497 6.5631 9.3387 6.4161 9.4277 6.2681 9.4727 6.1421 9.4727 6.0381"/>
</g>
</g>
</g>
</g>
</g>
</svg>
