<svg xmlns="http://www.w3.org/2000/svg" xmlns:xlink="http://www.w3.org/1999/xlink" xmlns:inkscape="http://www.inkscape.org/namespaces/inkscape" version="1.1" width="32" height="32" viewBox="0 0 32 32">
<defs>
<clipPath id="clip_1">
<path transform="matrix(1,0,0,-1,0,32)" d="M0 0H32V32H0Z"/>
</clipPath>
<clipPath id="clip_2">
<path transform="matrix(1,0,0,-1,0,32)" d="M0 0H32V32H0Z"/>
</clipPath>
<clipPath id="clip_3">
<path transform="matrix(1,0,0,-1,0,32)" d="M0 0H32V32H0Z"/>
</clipPath>
<clipPath id="clip_4">
<path transform="matrix(1,0,0,-1,0,32)" d="M0 0H32V32H0Z"/>
</clipPath>
<clipPath id="clip_5">
<path transform="matrix(1,0,0,-1,0,32)" d="M15 6H26V26H15Z"/>
</clipPath>
<clipPath id="clip_6">
<path transform="matrix(1,0,0,-1,0,32)" d="M15.4005 6.40688H25.7533V25.0339H15.4005Z"/>
</clipPath>
</defs>
<g>
<g clip-path="url(#clip_1)">
<g opacity=".2">
<g clip-path="url(#clip_2)">
<g clip-path="url(#clip_3)">
<path transform="matrix(1,0,0,-1,0,32)" d="M0 0H32V32H0Z" fill="#00ff00"/>
</g>
</g>
</g>
</g>
<g clip-path="url(#clip_4)">
<g opacity=".5">
<g clip-path="url(#clip_5)">
<g clip-path="url(#clip_6)">
<path transform="matrix(1,0,0,-1,0,32)" d="M24.9072 25.0342V22.1102H19.5442V19.0062C20.2152 19.8412 21.0782 20.2592 22.1352 20.2592 23.3262 20.2592 24.2272 19.9072 24.8382 19.2032 25.4482 18.4992 25.7532 17.1462 25.7532 15.1442V12.5372C25.7532 11.2422 25.6942 10.2922 25.5762 9.6862 25.4592 9.0802 25.2072 8.5192 24.8222 8.0042 24.4362 7.4882 23.8992 7.0942 23.2102 6.8192 22.5222 6.5442 21.6812 6.4072 20.6892 6.4072 19.5752 6.4072 18.5942 6.6122 17.7452 7.0222 16.8952 7.4322 16.2922 8.0442 15.9352 8.8562 15.5792 9.6692 15.4002 10.9272 15.4002 12.6272V13.6212H19.7252V12.4802C19.7252 11.2992 19.7652 10.4602 19.8432 9.9632 19.9222 9.4662 20.1932 9.2182 20.6572 9.2182 20.8712 9.2182 21.0442 9.2892 21.1762 9.4322 21.3082 9.5752 21.3802 9.7292 21.3902 9.8952 21.4012 10.0602 21.4132 10.7792 21.4282 12.0522V15.6752C21.4282 16.3602 21.3602 16.8272 21.2242 17.0752 21.0892 17.3232 20.8642 17.4472 20.5502 17.4472 20.3502 17.4472 20.1822 17.3842 20.0472 17.2562 19.9112 17.1282 19.8242 16.9902 19.7842 16.8442 19.7452 16.6972 19.7252 16.3562 19.7252 15.8222H15.4432L15.6252 25.0342Z"/>
</g>
</g>
</g>
<path transform="matrix(1,0,0,-1,0,32)" d="M11.1567 14.8867C11.1757 14.7827 11.1187 14.6577 10.9877 14.5067 10.8557 14.3557 10.7157 14.2667 10.5647 14.2387 10.4517 14.2197 10.2827 14.2517 10.0577 14.3367 9.7847 14.4307 9.5827 14.4877 9.4507 14.5067 9.1127 14.5427 8.6947 14.4917 8.1967 14.3507 7.5767 14.1817 7.0357 13.9087 6.5757 13.5337V11.9967C6.9707 12.1757 7.3507 12.2657 7.7177 12.2657 8.2527 12.2657 8.9107 11.9647 9.6907 11.3627 10.4707 10.7617 10.8607 10.2257 10.8607 9.7567 10.8607 8.2997 10.4917 6.9527 9.7547 5.7177 9.0167 4.4827 8.1967 3.8647 7.2947 3.8647 6.8337 3.8647 6.1197 4.2027 5.1527 4.8797 4.1847 5.5567 3.6817 6.0917 3.6437 6.4867 3.6257 6.6837 3.6817 6.8737 3.8137 7.0567 3.9447 7.2407 4.1047 7.3357 4.2927 7.3457 4.5837 7.3657 4.9877 7.1387 5.5047 6.6687 6.0687 6.1327 6.3687 5.8617 6.4067 5.8527 6.8957 6.1237 7.3937 6.7267 7.9007 7.6567 8.3897 8.5487 8.6337 9.2487 8.6337 9.7567 8.6337 10.0667 8.4837 10.2217 8.1827 10.2217 7.9007 10.2217 7.5157 10.0197 7.0267 9.6157 6.5377 9.2107 6.2807 9.0087 6.2517 9.0087 6.0637 8.9997 5.7117 9.1157 5.1947 9.3617 4.6777 9.6057 4.3207 9.8407 4.1237 10.0667 4.0577 10.1517 4.0247 10.2437 4.0247 10.3487 4.0247 10.3957 4.0367 10.4817 4.0597 10.6097 4.0837 10.7367 4.0947 10.8357 4.0947 10.9117V15.1557C4.0947 15.2957 4.1817 15.4367 4.3557 15.5767 4.5297 15.7177 4.7197 15.8077 4.9267 15.8457 4.9837 15.8547 5.0587 15.8427 5.1527 15.8097 5.2457 15.7767 5.3167 15.7607 5.3637 15.7607 5.4107 15.7607 5.4627 15.7747 5.5187 15.8027 6.2047 16.1127 6.9897 16.3577 7.8727 16.5357 8.5207 16.6677 8.9577 16.7287 9.1837 16.7197 9.2867 16.7377 9.3857 16.7557 9.4797 16.7757 9.5827 16.7847 9.6777 16.7617 9.7617 16.7037 10.0147 16.5177 10.2917 16.2307 10.5937 15.8457 10.9217 15.4317 11.1097 15.1127 11.1567 14.8867"/>
</g>
</g>
</svg>
