<svg xmlns="http://www.w3.org/2000/svg" xmlns:xlink="http://www.w3.org/1999/xlink" xmlns:inkscape="http://www.inkscape.org/namespaces/inkscape" version="1.1" width="32" height="32" viewBox="0 0 32 32">
<defs>
<clipPath id="clip_1">
<path transform="matrix(1,0,0,-1,0,32)" d="M0 0H32V32H0Z"/>
</clipPath>
<clipPath id="clip_2">
<path transform="matrix(1,0,0,-1,0,32)" d="M0 0H32V32H0Z"/>
</clipPath>
<clipPath id="clip_3">
<path transform="matrix(1,0,0,-1,0,32)" d="M0 0H32V32H0Z"/>
</clipPath>
<clipPath id="clip_4">
<path transform="matrix(1,0,0,-1,0,32)" d="M0 0H32V32H0Z"/>
</clipPath>
<clipPath id="clip_5">
<path transform="matrix(1,0,0,-1,0,32)" d="M15 6H26V26H15Z"/>
</clipPath>
<clipPath id="clip_6">
<path transform="matrix(1,0,0,-1,0,32)" d="M15.4005 6.40688H25.7533V25.0339H15.4005Z"/>
</clipPath>
</defs>
<g>
<g clip-path="url(#clip_1)">
<g opacity=".8">
<g clip-path="url(#clip_2)">
<g clip-path="url(#clip_3)">
<path transform="matrix(1,0,0,-1,0,32)" d="M0 0H32V32H0Z" fill="#00ff00"/>
</g>
</g>
</g>
</g>
<g clip-path="url(#clip_4)">
<g opacity=".5">
<g clip-path="url(#clip_5)">
<g clip-path="url(#clip_6)">
<path transform="matrix(1,0,0,-1,0,32)" d="M24.9072 25.0342V22.1102H19.5442V19.0062C20.2152 19.8412 21.0782 20.2592 22.1352 20.2592 23.3262 20.2592 24.2272 19.9072 24.8382 19.2032 25.4482 18.4992 25.7532 17.1462 25.7532 15.1442V12.5372C25.7532 11.2422 25.6942 10.2922 25.5762 9.6862 25.4592 9.0802 25.2072 8.5192 24.8222 8.0042 24.4362 7.4882 23.8992 7.0942 23.2102 6.8192 22.5222 6.5442 21.6812 6.4072 20.6892 6.4072 19.5752 6.4072 18.5942 6.6122 17.7452 7.0222 16.8952 7.4322 16.2922 8.0442 15.9352 8.8562 15.5792 9.6692 15.4002 10.9272 15.4002 12.6272V13.6212H19.7252V12.4802C19.7252 11.2992 19.7652 10.4602 19.8432 9.9632 19.9222 9.4662 20.1932 9.2182 20.6572 9.2182 20.8712 9.2182 21.0442 9.2892 21.1762 9.4322 21.3082 9.5752 21.3802 9.7292 21.3902 9.8952 21.4012 10.0602 21.4132 10.7792 21.4282 12.0522V15.6752C21.4282 16.3602 21.3602 16.8272 21.2242 17.0752 21.0892 17.3232 20.8642 17.4472 20.5502 17.4472 20.3502 17.4472 20.1822 17.3842 20.0472 17.2562 19.9112 17.1282 19.8242 16.9902 19.7842 16.8442 19.7452 16.6972 19.7252 16.3562 19.7252 15.8222H15.4432L15.6252 25.0342Z"/>
</g>
</g>
</g>
<path transform="matrix(1,0,0,-1,0,32)" d="M11.1694 6.124C11.1984 5.851 11.0234 5.658 10.6484 5.546 10.5254 5.564 10.3474 5.56 10.1124 5.532 9.9434 5.532 9.4124 5.395 8.5194 5.123 7.5144 4.842 6.7674 4.578 6.2784 4.334 6.1474 4.269 6.0274 4.181 5.9194 4.073 5.8114 3.965 5.7434 3.911 5.7154 3.911 5.5744 3.892 5.1654 4.136 4.4884 4.645 4.3004 4.757 4.1124 4.878 3.9244 5.011 3.7364 5.143 3.6374 5.297 3.6284 5.476 3.6284 5.541 4.0374 6.156 4.8554 7.321 5.8604 8.75 6.6404 9.943 7.1944 10.901 8.0494 12.415 8.5104 13.613 8.5754 14.496 7.8434 14.196 7.1104 13.52 6.3774 12.466 6.3204 12.419 6.2854 12.333 6.2714 12.206 6.2574 12.078 6.2314 11.992 6.1934 11.945 6.1004 11.822 5.9634 11.762 5.7854 11.762 5.4754 11.762 5.0994 11.912 4.6574 12.213 4.4694 12.316 4.2814 12.419 4.0934 12.523 3.8684 12.645 3.7514 12.753 3.7414 12.847 3.7224 13.063 3.9584 13.481 4.4464 14.102 4.9724 14.759 5.5554 15.319 6.1934 15.779 6.9554 16.344 7.6314 16.624 8.2234 16.624 8.4494 16.624 8.6634 16.552 8.8644 16.406 9.0664 16.261 9.2614 16.112 9.4504 15.963 10.2114 15.436 10.6954 14.938 10.9024 14.468 10.9394 14.374 10.9584 14.252 10.9584 14.102 10.9584 13.443 10.6104 12.372 9.9154 10.888 9.2574 9.487 8.5524 8.271 7.8014 7.238 8.0914 7.331 8.4964 7.472 9.0124 7.66 9.0694 7.688 9.1684 7.754 9.3094 7.857 9.4024 7.923 9.4924 7.951 9.5764 7.942 9.8024 7.913 10.1194 7.648 10.5284 7.146 10.9374 6.643 11.1504 6.302 11.1694 6.124"/>
</g>
</g>
</svg>
