<svg xmlns="http://www.w3.org/2000/svg" xmlns:xlink="http://www.w3.org/1999/xlink" xmlns:inkscape="http://www.inkscape.org/namespaces/inkscape" version="1.1" width="32" height="32" viewBox="0 0 32 32">
<defs>
<clipPath id="clip_1">
<path transform="matrix(1,0,0,-1,0,32)" d="M0 0H32V32H0Z"/>
</clipPath>
<clipPath id="clip_2">
<path transform="matrix(1,0,0,-1,0,32)" d="M0 0H32V32H0Z"/>
</clipPath>
<clipPath id="clip_3">
<path transform="matrix(1,0,0,-1,0,32)" d="M0 0H32V32H0Z"/>
</clipPath>
<clipPath id="clip_4">
<path transform="matrix(1,0,0,-1,0,32)" d="M0 0H32V32H0Z"/>
</clipPath>
<clipPath id="clip_5">
<path transform="matrix(1,0,0,-1,0,32)" d="M15 7H26V26H15Z"/>
</clipPath>
<clipPath id="clip_6">
<path transform="matrix(1,0,0,-1,0,32)" d="M15.2909 7.06299H25.7334V25.69H15.2909Z"/>
</clipPath>
<clipPath id="clip_7">
<path transform="matrix(1,0,0,-1,0,32)" d="M0 0H32V32H0Z"/>
</clipPath>
<clipPath id="clip_8">
<path transform="matrix(1,0,0,-1,0,32)" d="M3 3H11V17H3Z"/>
</clipPath>
<clipPath id="clip_9">
<path transform="matrix(1,0,0,-1,0,32)" d="M3.9532 3.71936H10.9451V16.3513H3.9532Z"/>
</clipPath>
</defs>
<g>
<g clip-path="url(#clip_1)">
<g opacity=".6">
<g clip-path="url(#clip_2)">
<g clip-path="url(#clip_3)">
<path transform="matrix(1,0,0,-1,0,32)" d="M0 0H32V32H0Z" fill="#0000ff"/>
</g>
</g>
</g>
</g>
<g clip-path="url(#clip_4)">
<g opacity=".7">
<g clip-path="url(#clip_5)">
<g clip-path="url(#clip_6)">
<path transform="matrix(1,0,0,-1,0,32)" d="M25.3271 10.1787V7.0637H15.2911L15.2941 9.6707C18.2661 14.5327 20.0331 17.5407 20.5941 18.6967 21.1551 19.8517 21.4351 20.7527 21.4351 21.4007 21.4351 21.8967 21.3501 22.2677 21.1811 22.5117 21.0111 22.7567 20.7531 22.8787 20.4071 22.8787 20.0591 22.8787 19.8021 22.7427 19.6321 22.4727 19.4621 22.2017 19.3771 21.6637 19.3771 20.8587V19.1197H15.2911V19.7857C15.2911 20.8097 15.3441 21.6167 15.4491 22.2067 15.5541 22.7977 15.8141 23.3797 16.2281 23.9507 16.6421 24.5237 17.1801 24.9557 17.8421 25.2497 18.5041 25.5427 19.2981 25.6907 20.2241 25.6907 22.0381 25.6907 23.4101 25.2407 24.3391 24.3407 25.2681 23.4417 25.7331 22.3037 25.7331 20.9257 25.7331 19.8797 25.4721 18.7737 24.9491 17.6077 24.4261 16.4407 22.8851 13.9647 20.3261 10.1787Z" fill="#ffffff"/>
</g>
</g>
</g>
</g>
<g clip-path="url(#clip_7)">
<g opacity=".8">
<g clip-path="url(#clip_8)">
<g clip-path="url(#clip_9)">
<path transform="matrix(1,0,0,-1,0,32)" d="M10.8042 13.2197C10.7382 12.5617 10.3102 11.7727 9.5212 10.8527 10.4702 10.0527 10.9452 9.1427 10.9452 8.1177 10.9452 7.0647 10.4802 6.0547 9.5502 5.0867 8.7032 4.2227 7.9102 3.7667 7.1682 3.7197 6.8662 3.7017 6.2512 4.0677 5.3212 4.8197 4.4192 5.5517 3.9632 6.0127 3.9532 6.2007 3.9452 6.4167 4.0482 6.6147 4.2642 6.7927 4.4802 6.9707 4.6862 7.0557 4.8842 7.0467 5.0162 7.0367 5.2272 6.8637 5.5182 6.5247 5.8092 6.1867 6.0772 5.9927 6.3222 5.9467 6.7072 5.8627 7.2282 6.2517 7.8862 7.1157 8.5152 7.9347 8.8312 8.5397 8.8312 8.9347 8.8312 9.1047 8.7222 9.1897 8.5062 9.1897 8.3562 9.1897 8.1782 9.1137 7.9712 8.9627 7.8202 8.8607 7.6722 8.7547 7.5272 8.6467 7.3812 8.5377 7.2382 8.4927 7.0972 8.5127 6.9372 8.5317 6.6812 8.6807 6.3282 8.9627 5.9762 9.2447 5.6872 9.5367 5.4622 9.8367 5.4152 9.9027 5.3912 9.9787 5.3912 10.0627 5.3912 10.3257 5.5182 10.5137 5.7722 10.6267 6.1292 10.7857 6.5612 11.1237 7.0692 11.6417 7.8022 12.4027 8.2572 13.2107 8.4362 14.0657 8.0602 13.9817 7.6422 13.6307 7.1812 13.0157 6.7212 12.3997 6.4352 12.0737 6.3222 12.0357 6.1432 11.9697 5.8032 12.0827 5.3002 12.3747 4.7972 12.6657 4.4712 12.9237 4.3202 13.1507 4.2922 13.1867 4.2782 13.2337 4.2782 13.2897 4.2782 13.4407 4.4052 13.6567 4.6582 13.9397 5.4382 14.8137 5.9742 15.3717 6.2652 15.6157 6.8762 16.1327 7.4582 16.3767 8.0132 16.3497 8.6342 16.3117 9.2702 15.9307 9.9232 15.2077 10.5762 14.4847 10.8702 13.8217 10.8042 13.2197"/>
</g>
</g>
</g>
</g>
</g>
</svg>
