<svg xmlns="http://www.w3.org/2000/svg" xmlns:xlink="http://www.w3.org/1999/xlink" xmlns:inkscape="http://www.inkscape.org/namespaces/inkscape" version="1.1" width="32" height="32" viewBox="0 0 32 32">
<defs>
<clipPath id="clip_1">
<path transform="matrix(1,0,0,-1,0,32)" d="M0 0H32V32H0Z"/>
</clipPath>
<clipPath id="clip_2">
<path transform="matrix(1,0,0,-1,0,32)" d="M0 0H32V32H0Z"/>
</clipPath>
<clipPath id="clip_3">
<path transform="matrix(1,0,0,-1,0,32)" d="M0 0H32V32H0Z"/>
</clipPath>
<clipPath id="clip_4">
<path transform="matrix(1,0,0,-1,0,32)" d="M0 0H32V32H0Z"/>
</clipPath>
<clipPath id="clip_5">
<path transform="matrix(1,0,0,-1,0,32)" d="M15 7H26V26H15Z"/>
</clipPath>
<clipPath id="clip_6">
<path transform="matrix(1,0,0,-1,0,32)" d="M15.2909 7.06299H25.7334V25.69H15.2909Z"/>
</clipPath>
<clipPath id="clip_7">
<path transform="matrix(1,0,0,-1,0,32)" d="M0 0H32V32H0Z"/>
</clipPath>
<clipPath id="clip_8">
<path transform="matrix(1,0,0,-1,0,32)" d="M4 3H13V17H4Z"/>
</clipPath>
<clipPath id="clip_9">
<path transform="matrix(1,0,0,-1,0,32)" d="M4.68541 3.86426H12.2052V16.7776H4.68541Z"/>
</clipPath>
</defs>
<g>
<g clip-path="url(#clip_1)">
<g opacity=".2">
<g clip-path="url(#clip_2)">
<g clip-path="url(#clip_3)">
<path transform="matrix(1,0,0,-1,0,32)" d="M0 0H32V32H0Z" fill="#0000ff"/>
</g>
</g>
</g>
</g>
<g clip-path="url(#clip_4)">
<g opacity=".5">
<g clip-path="url(#clip_5)">
<g clip-path="url(#clip_6)">
<path transform="matrix(1,0,0,-1,0,32)" d="M25.3271 10.1787V7.0637H15.2911L15.2941 9.6707C18.2661 14.5327 20.0331 17.5407 20.5941 18.6967 21.1551 19.8517 21.4351 20.7527 21.4351 21.4007 21.4351 21.8967 21.3501 22.2677 21.1811 22.5117 21.0111 22.7567 20.7531 22.8787 20.4071 22.8787 20.0591 22.8787 19.8021 22.7427 19.6321 22.4727 19.4621 22.2017 19.3771 21.6637 19.3771 20.8587V19.1197H15.2911V19.7857C15.2911 20.8097 15.3441 21.6167 15.4491 22.2067 15.5541 22.7977 15.8141 23.3797 16.2281 23.9507 16.6421 24.5237 17.1801 24.9557 17.8421 25.2497 18.5041 25.5427 19.2981 25.6907 20.2241 25.6907 22.0381 25.6907 23.4101 25.2407 24.3391 24.3407 25.2681 23.4417 25.7331 22.3037 25.7331 20.9257 25.7331 19.8797 25.4721 18.7737 24.9491 17.6077 24.4261 16.4407 22.8851 13.9647 20.3261 10.1787Z"/>
</g>
</g>
</g>
</g>
<g clip-path="url(#clip_7)">
<g opacity=".8">
<g clip-path="url(#clip_8)">
<g clip-path="url(#clip_9)">
<path transform="matrix(1,0,0,-1,0,32)" d="M12.2017 14.8867C12.2207 14.7827 12.1637 14.6577 12.0327 14.5067 11.9007 14.3557 11.7607 14.2667 11.6097 14.2387 11.4967 14.2197 11.3277 14.2517 11.1017 14.3367 10.8297 14.4307 10.6277 14.4877 10.4957 14.5067 10.1577 14.5427 9.7397 14.4917 9.2417 14.3507 8.6217 14.1817 8.0807 13.9087 7.6207 13.5337V11.9967C8.0157 12.1757 8.3957 12.2657 8.7627 12.2657 9.2977 12.2657 9.9557 11.9647 10.7357 11.3627 11.5157 10.7617 11.9057 10.2257 11.9057 9.7567 11.9057 8.2997 11.5367 6.9527 10.7997 5.7177 10.0607 4.4827 9.2417 3.8647 8.3397 3.8647 7.8787 3.8647 7.1647 4.2027 6.1977 4.8797 5.2297 5.5567 4.7257 6.0917 4.6887 6.4867 4.6697 6.6837 4.7257 6.8737 4.8587 7.0567 4.9897 7.2407 5.1497 7.3357 5.3367 7.3457 5.6287 7.3657 6.0327 7.1387 6.5497 6.6687 7.1137 6.1327 7.4137 5.8617 7.4517 5.8527 7.9407 6.1237 8.4377 6.7267 8.9457 7.6567 9.4347 8.5487 9.6787 9.2487 9.6787 9.7567 9.6787 10.0667 9.5287 10.2217 9.2277 10.2217 8.9457 10.2217 8.5607 10.0197 8.0717 9.6157 7.5827 9.2107 7.3247 9.0087 7.2967 9.0087 7.1087 8.9997 6.7557 9.1157 6.2397 9.3617 5.7227 9.6057 5.3657 9.8407 5.1687 10.0667 5.1027 10.1517 5.0697 10.2437 5.0697 10.3487 5.0697 10.3957 5.0807 10.4817 5.1047 10.6097 5.1287 10.7367 5.1397 10.8357 5.1397 10.9117V15.1557C5.1397 15.2957 5.2267 15.4367 5.4007 15.5767 5.5747 15.7177 5.7647 15.8077 5.9717 15.8457 6.0287 15.8547 6.1037 15.8427 6.1977 15.8097 6.2907 15.7767 6.3617 15.7607 6.4087 15.7607 6.4557 15.7607 6.5077 15.7747 6.5637 15.8027 7.2487 16.1127 8.0347 16.3577 8.9177 16.5357 9.5657 16.6677 10.0027 16.7287 10.2277 16.7197 10.3317 16.7377 10.4307 16.7557 10.5237 16.7757 10.6277 16.7847 10.7227 16.7617 10.8057 16.7037 11.0597 16.5177 11.3367 16.2307 11.6377 15.8457 11.9667 15.4317 12.1547 15.1127 12.2017 14.8867"/>
</g>
</g>
</g>
</g>
</g>
</svg>
