<svg xmlns="http://www.w3.org/2000/svg" xmlns:xlink="http://www.w3.org/1999/xlink" xmlns:inkscape="http://www.inkscape.org/namespaces/inkscape" version="1.1" width="32" height="32" viewBox="0 0 32 32">
<defs>
<clipPath id="clip_1">
<path transform="matrix(1,0,0,-1,0,32)" d="M0 0H32V32H0Z"/>
</clipPath>
<clipPath id="clip_2">
<path transform="matrix(1,0,0,-1,0,32)" d="M0 0H32V32H0Z"/>
</clipPath>
<clipPath id="clip_3">
<path transform="matrix(1,0,0,-1,0,32)" d="M0 0H32V32H0Z"/>
</clipPath>
<clipPath id="clip_4">
<path transform="matrix(1,0,0,-1,0,32)" d="M0 0H32V32H0Z"/>
</clipPath>
<clipPath id="clip_5">
<path transform="matrix(1,0,0,-1,0,32)" d="M14 6H26V26H14Z"/>
</clipPath>
<clipPath id="clip_6">
<path transform="matrix(1,0,0,-1,0,32)" d="M14.5847 6.968H25.8625V25.2451H14.5847Z"/>
</clipPath>
<clipPath id="clip_7">
<path transform="matrix(1,0,0,-1,0,32)" d="M0 0H32V32H0Z"/>
</clipPath>
<clipPath id="clip_8">
<path transform="matrix(1,0,0,-1,0,32)" d="M3 3H11V17H3Z"/>
</clipPath>
<clipPath id="clip_9">
<path transform="matrix(1,0,0,-1,0,32)" d="M3.36369 3.71936H10.3556V16.3513H3.36369Z"/>
</clipPath>
</defs>
<g>
<g clip-path="url(#clip_1)">
<g opacity=".6">
<g clip-path="url(#clip_2)">
<g clip-path="url(#clip_3)">
<path transform="matrix(1,0,0,-1,0,32)" d="M0 0H32V32H0Z" fill="#ffff00"/>
</g>
</g>
</g>
</g>
<g clip-path="url(#clip_4)">
<g opacity=".5">
<g clip-path="url(#clip_5)">
<g clip-path="url(#clip_6)">
<path transform="matrix(1,0,0,-1,0,32)" d="M20.0034 13.3008V21.0788L17.9884 13.3008ZM24.5644 25.2448V13.3008H25.8624V10.1858H24.5644V6.9678H20.0034V10.1858H14.5844V13.3008L18.5244 25.2448Z"/>
</g>
</g>
</g>
</g>
<g clip-path="url(#clip_7)">
<g opacity=".75">
<g clip-path="url(#clip_8)">
<g clip-path="url(#clip_9)">
<path transform="matrix(1,0,0,-1,0,32)" d="M10.2144 13.2197C10.1484 12.5617 9.7214 11.7727 8.9324 10.8527 9.8814 10.0527 10.3554 9.1427 10.3554 8.1177 10.3554 7.0647 9.8904 6.0547 8.9604 5.0867 8.1144 4.2227 7.3204 3.7667 6.5784 3.7197 6.2774 3.7017 5.6614 4.0677 4.7314 4.8197 3.8294 5.5517 3.3734 6.0127 3.3644 6.2007 3.3554 6.4167 3.4584 6.6147 3.6744 6.7927 3.8904 6.9707 4.0974 7.0557 4.2944 7.0467 4.4264 7.0367 4.6374 6.8637 4.9284 6.5247 5.2204 6.1867 5.4884 5.9927 5.7324 5.9467 6.1174 5.8627 6.6394 6.2517 7.2974 7.1157 7.9264 7.9347 8.2414 8.5397 8.2414 8.9347 8.2414 9.1047 8.1334 9.1897 7.9174 9.1897 7.7664 9.1897 7.5884 9.1137 7.3814 8.9627 7.2314 8.8607 7.0834 8.7547 6.9374 8.6467 6.7914 8.5377 6.6494 8.4927 6.5074 8.5127 6.3474 8.5317 6.0914 8.6807 5.7394 8.9627 5.3874 9.2447 5.0984 9.5367 4.8724 9.8367 4.8254 9.9027 4.8024 9.9787 4.8024 10.0627 4.8024 10.3257 4.9284 10.5137 5.1834 10.6267 5.5394 10.7857 5.9724 11.1237 6.4794 11.6417 7.2134 12.4027 7.6684 13.2107 7.8464 14.0657 7.4704 13.9817 7.0524 13.6307 6.5924 13.0157 6.1314 12.3997 5.8454 12.0737 5.7324 12.0357 5.5544 11.9697 5.2134 12.0827 4.7104 12.3747 4.2084 12.6657 3.8814 12.9237 3.7314 13.1507 3.7024 13.1867 3.6894 13.2337 3.6894 13.2897 3.6894 13.4407 3.8154 13.6567 4.0694 13.9397 4.8494 14.8137 5.3844 15.3717 5.6764 15.6157 6.2874 16.1327 6.8694 16.3767 7.4234 16.3497 8.0444 16.3117 8.6804 15.9307 9.3334 15.2077 9.9864 14.4847 10.2804 13.8217 10.2144 13.2197"/>
</g>
</g>
</g>
</g>
</g>
</svg>
