<svg xmlns="http://www.w3.org/2000/svg" xmlns:xlink="http://www.w3.org/1999/xlink" xmlns:inkscape="http://www.inkscape.org/namespaces/inkscape" version="1.1" width="32" height="32" viewBox="0 0 32 32">
<defs>
<clipPath id="clip_1">
<path transform="matrix(1,0,0,-1,0,32)" d="M0 0H32V32H0Z"/>
</clipPath>
<clipPath id="clip_2">
<path transform="matrix(1,0,0,-1,0,32)" d="M0 0H32V32H0Z"/>
</clipPath>
<clipPath id="clip_3">
<path transform="matrix(1,0,0,-1,0,32)" d="M0 0H32V32H0Z"/>
</clipPath>
<clipPath id="clip_4">
<path transform="matrix(1,0,0,-1,0,32)" d="M0 0H32V32H0Z"/>
</clipPath>
<clipPath id="clip_5">
<path transform="matrix(1,0,0,-1,0,32)" d="M15 7H26V26H15Z"/>
</clipPath>
<clipPath id="clip_6">
<path transform="matrix(1,0,0,-1,0,32)" d="M15.2909 7.06299H25.7334V25.69H15.2909Z"/>
</clipPath>
<clipPath id="clip_7">
<path transform="matrix(1,0,0,-1,0,32)" d="M0 0H32V32H0Z"/>
</clipPath>
<clipPath id="clip_8">
<path transform="matrix(1,0,0,-1,0,32)" d="M3 3H14V17H3Z"/>
</clipPath>
<clipPath id="clip_9">
<path transform="matrix(1,0,0,-1,0,32)" d="M3.81834 3.20851H13.4594V16.0536H3.81834Z"/>
</clipPath>
</defs>
<g>
<g clip-path="url(#clip_1)">
<g opacity=".4">
<g clip-path="url(#clip_2)">
<g clip-path="url(#clip_3)">
<path transform="matrix(1,0,0,-1,0,32)" d="M0 0H32V32H0Z" fill="#0000ff"/>
</g>
</g>
</g>
</g>
<g clip-path="url(#clip_4)">
<g opacity=".5">
<g clip-path="url(#clip_5)">
<g clip-path="url(#clip_6)">
<path transform="matrix(1,0,0,-1,0,32)" d="M25.3271 10.1787V7.0637H15.2911L15.2941 9.6707C18.2661 14.5327 20.0331 17.5407 20.5941 18.6967 21.1551 19.8517 21.4351 20.7527 21.4351 21.4007 21.4351 21.8967 21.3501 22.2677 21.1811 22.5117 21.0111 22.7567 20.7531 22.8787 20.4071 22.8787 20.0591 22.8787 19.8021 22.7427 19.6321 22.4727 19.4621 22.2017 19.3771 21.6637 19.3771 20.8587V19.1197H15.2911V19.7857C15.2911 20.8097 15.3441 21.6167 15.4491 22.2067 15.5541 22.7977 15.8141 23.3797 16.2281 23.9507 16.6421 24.5237 17.1801 24.9557 17.8421 25.2497 18.5041 25.5427 19.2981 25.6907 20.2241 25.6907 22.0381 25.6907 23.4101 25.2407 24.3391 24.3407 25.2681 23.4417 25.7331 22.3037 25.7331 20.9257 25.7331 19.8797 25.4721 18.7737 24.9491 17.6077 24.4261 16.4407 22.8851 13.9647 20.3261 10.1787Z"/>
</g>
</g>
</g>
</g>
<g clip-path="url(#clip_7)">
<g opacity=".8">
<g clip-path="url(#clip_8)">
<g clip-path="url(#clip_9)">
<path transform="matrix(1,0,0,-1,0,32)" d="M9.0054 9.5264V11.4714L7.4974 9.0194ZM13.4594 8.3574C13.4594 8.1494 13.2574 7.9714 12.8534 7.8214 12.4494 7.7554 11.9934 7.6744 11.4864 7.5824V4.2834C11.4864 4.2454 11.4954 4.1884 11.5144 4.1144 11.5324 4.0394 11.5374 3.9734 11.5284 3.9174 11.5094 3.7194 11.4184 3.5474 11.2534 3.4024 11.0884 3.2554 10.9314 3.1934 10.7814 3.2124 10.2084 3.2874 9.5694 3.7334 8.8644 4.5514 8.7894 4.6454 8.7614 4.8094 8.7794 5.0454 8.7794 5.0914 8.8124 5.1474 8.8784 5.2134 8.9434 5.2794 8.9774 5.3404 8.9774 5.3964V7.2434C8.1974 6.9904 7.6094 6.8064 7.2154 6.6944 6.5104 6.4974 6.0264 6.3874 5.7634 6.3694 5.5384 6.3494 5.1854 6.5104 4.7064 6.8484 4.2834 7.1494 4.0114 7.3894 3.8884 7.5674 3.8414 7.6334 3.8184 7.7034 3.8184 7.7794 3.8184 7.8914 3.9224 8.0934 4.1284 8.3844 4.2324 8.4784 4.3774 8.6384 4.5654 8.8644 4.5844 8.8824 5.3124 10.0394 6.7504 12.3324 8.1604 14.5784 8.9164 15.7284 9.0194 15.7844 9.3294 15.9724 9.5604 16.0624 9.7104 16.0524 9.9264 16.0444 10.3114 15.8424 10.8654 15.4544 11.4204 15.0644 11.7164 14.7754 11.7544 14.5874 11.7824 14.4834 11.6884 14.2824 11.4724 13.9804V10.1464C11.7914 10.2034 11.9614 10.2314 11.9794 10.2314 12.0924 10.2314 12.1914 10.1984 12.2764 10.1324 12.4444 9.9824 12.6844 9.6704 12.9944 9.1964 13.3044 8.7204 13.4594 8.4414 13.4594 8.3574"/>
</g>
</g>
</g>
</g>
</g>
</svg>
