<svg xmlns="http://www.w3.org/2000/svg" xmlns:xlink="http://www.w3.org/1999/xlink" xmlns:inkscape="http://www.inkscape.org/namespaces/inkscape" version="1.1" width="32" height="32" viewBox="0 0 32 32">
<defs>
<clipPath id="clip_1">
<path transform="matrix(1,0,0,-1,0,32)" d="M0 0H32V32H0Z"/>
</clipPath>
<clipPath id="clip_2">
<path transform="matrix(1,0,0,-1,0,32)" d="M0 0H32V32H0Z"/>
</clipPath>
<clipPath id="clip_3">
<path transform="matrix(1,0,0,-1,0,32)" d="M0 0H32V32H0Z"/>
</clipPath>
<clipPath id="clip_4">
<path transform="matrix(1,0,0,-1,0,32)" d="M0 0H32V32H0Z"/>
</clipPath>
<clipPath id="clip_5">
<path transform="matrix(1,0,0,-1,0,32)" d="M15 6H24V26H15Z"/>
</clipPath>
<clipPath id="clip_6">
<path transform="matrix(1,0,0,-1,0,32)" d="M15.9039 6.86145H23.614399V25.1385H15.9039Z"/>
</clipPath>
<clipPath id="clip_7">
<path transform="matrix(1,0,0,-1,0,32)" d="M0 0H32V32H0Z"/>
</clipPath>
<clipPath id="clip_8">
<path transform="matrix(1,0,0,-1,0,32)" d="M6 3H14V17H6Z"/>
</clipPath>
<clipPath id="clip_9">
<path transform="matrix(1,0,0,-1,0,32)" d="M6.16249 3.75185H13.682301V16.6652H6.16249Z"/>
</clipPath>
</defs>
<g>
<g clip-path="url(#clip_1)">
<g opacity=".2">
<g clip-path="url(#clip_2)">
<g clip-path="url(#clip_3)">
<path transform="matrix(1,0,0,-1,0,32)" d="M0 0H32V32H0Z" fill="#ff0000"/>
</g>
</g>
</g>
</g>
<g clip-path="url(#clip_4)">
<g opacity=".5">
<g clip-path="url(#clip_5)">
<g clip-path="url(#clip_6)">
<path transform="matrix(1,0,0,-1,0,32)" d="M23.6143 25.1387V6.8617H19.0533V16.6597C19.0533 18.0757 19.0193 18.9257 18.9523 19.2117 18.8843 19.4977 18.6973 19.7137 18.3933 19.8617 18.0883 20.0077 17.4093 20.0807 16.3553 20.0807H15.9043V22.2107C18.1093 22.6867 19.7833 23.6607 20.9273 25.1387Z"/>
</g>
</g>
</g>
</g>
<g clip-path="url(#clip_7)">
<g opacity=".8">
<g clip-path="url(#clip_8)">
<g clip-path="url(#clip_9)">
<path transform="matrix(1,0,0,-1,0,32)" d="M13.6787 14.7744C13.6977 14.6704 13.6407 14.5454 13.5097 14.3944 13.3777 14.2434 13.2377 14.1544 13.0867 14.1264 12.9737 14.1074 12.8047 14.1394 12.5787 14.2244 12.3067 14.3184 12.1047 14.3754 11.9727 14.3944 11.6347 14.4304 11.2167 14.3794 10.7187 14.2384 10.0987 14.0694 9.5577 13.7964 9.0977 13.4214V11.8844C9.4927 12.0634 9.8727 12.1534 10.2397 12.1534 10.7747 12.1534 11.4327 11.8524 12.2127 11.2504 12.9927 10.6494 13.3827 10.1134 13.3827 9.6444 13.3827 8.1874 13.0137 6.8404 12.2767 5.6054 11.5387 4.3704 10.7187 3.7524 9.8167 3.7524 9.3557 3.7524 8.6417 4.0894 7.6747 4.7664 6.7067 5.4434 6.2027 5.9794 6.1657 6.3744 6.1467 6.5714 6.2027 6.7614 6.3357 6.9444 6.4667 7.1284 6.6267 7.2234 6.8137 7.2334 7.1057 7.2534 7.5097 7.0264 8.0267 6.5564 8.5907 6.0204 8.8907 5.7494 8.9287 5.7394 9.4177 6.0114 9.9147 6.6144 10.4227 7.5444 10.9117 8.4364 11.1557 9.1354 11.1557 9.6444 11.1557 9.9544 11.0057 10.1084 10.7047 10.1084 10.4227 10.1084 10.0377 9.9074 9.5487 9.5034 9.0597 9.0984 8.8027 8.8964 8.7737 8.8964 8.5857 8.8874 8.2327 9.0034 7.7167 9.2494 7.1997 9.4934 6.8427 9.7284 6.6457 9.9544 6.5797 10.0394 6.5467 10.1314 6.5467 10.2364 6.5467 10.2834 6.5587 10.3694 6.5817 10.4974 6.6057 10.6244 6.6167 10.7234 6.6167 10.7994V15.0424C6.6167 15.1834 6.7037 15.3244 6.8777 15.4644 7.0517 15.6054 7.2417 15.6954 7.4487 15.7334 7.5057 15.7424 7.5807 15.7304 7.6747 15.6974 7.7677 15.6644 7.8387 15.6484 7.8857 15.6484 7.9327 15.6484 7.9847 15.6624 8.0407 15.6904 8.7257 16.0004 9.5117 16.2444 10.3947 16.4234 11.0427 16.5554 11.4797 16.6164 11.7047 16.6074 11.8087 16.6254 11.9077 16.6434 12.0007 16.6634 12.1047 16.6724 12.1997 16.6494 12.2827 16.5914 12.5367 16.4054 12.8137 16.1184 13.1147 15.7334 13.4437 15.3184 13.6317 15.0004 13.6787 14.7744"/>
</g>
</g>
</g>
</g>
</g>
</svg>
