<svg xmlns="http://www.w3.org/2000/svg" xmlns:xlink="http://www.w3.org/1999/xlink" xmlns:inkscape="http://www.inkscape.org/namespaces/inkscape" version="1.1" width="32" height="32" viewBox="0 0 32 32">
<defs>
<clipPath id="clip_1">
<path transform="matrix(1,0,0,-1,0,32)" d="M0 0H32V32H0Z"/>
</clipPath>
<clipPath id="clip_2">
<path transform="matrix(1,0,0,-1,0,32)" d="M0 0H32V32H0Z"/>
</clipPath>
<clipPath id="clip_3">
<path transform="matrix(1,0,0,-1,0,32)" d="M0 0H32V32H0Z"/>
</clipPath>
<clipPath id="clip_4">
<path transform="matrix(1,0,0,-1,0,32)" d="M0 0H32V32H0Z"/>
</clipPath>
<clipPath id="clip_5">
<path transform="matrix(1,0,0,-1,0,32)" d="M0 0H32V32H0Z"/>
</clipPath>
<clipPath id="clip_6">
<path transform="matrix(1,0,0,-1,0,32)" d="M0 0H32V32H0Z"/>
</clipPath>
<clipPath id="clip_7">
<path transform="matrix(1,0,0,-1,0,32)" d="M15 6H26V26H15Z"/>
</clipPath>
<clipPath id="clip_8">
<path transform="matrix(1,0,0,-1,0,32)" d="M15.1635 6.17638H25.9221V25.176H15.1635Z"/>
</clipPath>
<clipPath id="clip_9">
<path transform="matrix(1,0,0,-1,0,32)" d="M0 0H32V32H0Z"/>
</clipPath>
<clipPath id="clip_10">
<path transform="matrix(1,0,0,-1,0,32)" d="M3 5H8V18H3Z"/>
</clipPath>
<clipPath id="clip_11">
<path transform="matrix(1,0,0,-1,0,32)" d="M3.83406 5.13661H7.97783V17.564202H3.83406Z"/>
</clipPath>
</defs>
<g>
<g clip-path="url(#clip_1)">
<g>
<g clip-path="url(#clip_2)">
<g clip-path="url(#clip_3)">
<g style="mix-blend-mode:color">
<g clip-path="url(#clip_4)">
<g clip-path="url(#clip_5)">
<path transform="matrix(1,0,0,-1,0,32)" d="M0 0H32V32H0Z"/>
</g>
</g>
</g>
</g>
<g clip-path="url(#clip_6)">
<g opacity=".5">
<g clip-path="url(#clip_7)">
<g clip-path="url(#clip_8)">
<path transform="matrix(1,0,0,-1,0,32)" d="M23.8677 16.8955C24.5597 16.6625 25.0757 16.2805 25.4137 15.7495 25.7527 15.2165 25.9217 13.9735 25.9217 12.0165 25.9217 10.5625 25.7567 9.4355 25.4257 8.6335 25.0947 7.8305 24.5227 7.2205 23.7097 6.8025 22.8967 6.3845 21.8537 6.1765 20.5827 6.1765 19.1377 6.1765 18.0027 6.4185 17.1787 6.9045 16.3547 7.3895 15.8127 7.9845 15.5537 8.6885 15.2937 9.3915 15.1637 10.6135 15.1637 12.3515V13.7965H19.7237V10.8275C19.7237 10.0375 19.7717 9.5355 19.8657 9.3205 19.9597 9.1055 20.1687 8.9995 20.4927 8.9995 20.8457 8.9995 21.0787 9.1335 21.1917 9.4055 21.3047 9.6755 21.3617 10.3835 21.3617 11.5275V12.7915C21.3617 13.4925 21.2827 14.0035 21.1237 14.3275 20.9667 14.6505 20.7327 14.8635 20.4247 14.9645 20.1157 15.0665 19.5177 15.1245 18.6297 15.1395V17.7925C19.7127 17.7925 20.3827 17.8335 20.6387 17.9165 20.8947 17.9995 21.0787 18.1805 21.1917 18.4585 21.3047 18.7375 21.3617 19.1735 21.3617 19.7685V20.7845C21.3617 21.4235 21.2957 21.8455 21.1637 22.0485 21.0327 22.2515 20.8267 22.3535 20.5487 22.3535 20.2327 22.3535 20.0157 22.2465 19.8997 22.0325 19.7827 21.8175 19.7237 21.3605 19.7237 20.6605V19.1595H15.1637V20.7165C15.1637 22.4625 15.5627 23.6425 16.3607 24.2555 17.1587 24.8695 18.4267 25.1755 20.1647 25.1755 22.3397 25.1755 23.8147 24.7505 24.5897 23.9005 25.3657 23.0515 25.7527 21.8705 25.7527 20.3595 25.7527 19.3355 25.6137 18.5965 25.3347 18.1425 25.0567 17.6875 24.5677 17.2715 23.8677 16.8955" fill="#ffffff"/>
</g>
</g>
</g>
</g>
<g clip-path="url(#clip_9)">
<g opacity=".5">
<g clip-path="url(#clip_10)">
<g clip-path="url(#clip_11)">
<path transform="matrix(1,0,0,-1,0,32)" d="M7.978 6.0381C7.978 5.8001 7.907 5.5881 7.766 5.4021 7.625 5.2171 7.447 5.1281 7.231 5.1381 7.08 5.1471 6.714 5.3501 6.132 5.7451 5.549 6.1411 5.252 6.4131 5.243 6.5651 5.243 6.6321 5.258 6.7211 5.286 6.8311 5.314 6.9401 5.328 7.0221 5.328 7.0811V13.0801C5.328 13.2981 5.117 13.4551 4.694 13.5511 4.224 13.6641 3.956 13.8221 3.89 14.0221 3.853 14.1271 3.834 14.2261 3.834 14.3221 3.834 14.5311 3.937 14.7791 4.144 15.0651 4.426 15.4541 4.595 15.7081 4.651 15.8211 4.764 16.1921 4.877 16.5641 4.99 16.9351 5.149 17.3541 5.427 17.5641 5.821 17.5641 6.225 17.5641 6.629 17.4391 7.033 17.1931 7.484 16.9171 7.71 16.6021 7.71 16.2511V6.7811C7.71 6.6851 7.755 6.5631 7.844 6.4161 7.933 6.2681 7.978 6.1421 7.978 6.0381" fill="#ffffff"/>
</g>
</g>
</g>
</g>
</g>
</g>
</g>
</g>
</svg>
