<svg xmlns="http://www.w3.org/2000/svg" xmlns:xlink="http://www.w3.org/1999/xlink" xmlns:inkscape="http://www.inkscape.org/namespaces/inkscape" version="1.1" width="32" height="32" viewBox="0 0 32 32">
<defs>
<clipPath id="clip_1">
<path transform="matrix(1,0,0,-1,0,32)" d="M0 0H32V32H0Z"/>
</clipPath>
<clipPath id="clip_2">
<path transform="matrix(1,0,0,-1,0,32)" d="M0 0H32V32H0Z"/>
</clipPath>
<clipPath id="clip_3">
<path transform="matrix(1,0,0,-1,0,32)" d="M0 0H32V32H0Z"/>
</clipPath>
<clipPath id="clip_4">
<path transform="matrix(1,0,0,-1,0,32)" d="M0 0H32V32H0Z"/>
</clipPath>
<clipPath id="clip_5">
<path transform="matrix(1,0,0,-1,0,32)" d="M15 6H24V26H15Z"/>
</clipPath>
<clipPath id="clip_6">
<path transform="matrix(1,0,0,-1,0,32)" d="M15.9039 6.86145H23.614399V25.1385H15.9039Z"/>
</clipPath>
<clipPath id="clip_7">
<path transform="matrix(1,0,0,-1,0,32)" d="M0 0H32V32H0Z"/>
</clipPath>
<clipPath id="clip_8">
<path transform="matrix(1,0,0,-1,0,32)" d="M5 3H13V17H5Z"/>
</clipPath>
<clipPath id="clip_9">
<path transform="matrix(1,0,0,-1,0,32)" d="M5.09041 3.79788H12.6342V16.5119H5.09041Z"/>
</clipPath>
</defs>
<g>
<g clip-path="url(#clip_1)">
<g opacity=".8">
<g clip-path="url(#clip_2)">
<g clip-path="url(#clip_3)">
<path transform="matrix(1,0,0,-1,0,32)" d="M0 0H32V32H0Z" fill="#ff0000"/>
</g>
</g>
</g>
</g>
<g clip-path="url(#clip_4)">
<g opacity=".6">
<g clip-path="url(#clip_5)">
<g clip-path="url(#clip_6)">
<path transform="matrix(1,0,0,-1,0,32)" d="M23.6143 25.1387V6.8617H19.0533V16.6597C19.0533 18.0757 19.0193 18.9257 18.9523 19.2117 18.8843 19.4977 18.6973 19.7137 18.3933 19.8617 18.0883 20.0077 17.4093 20.0807 16.3553 20.0807H15.9043V22.2107C18.1093 22.6867 19.7833 23.6607 20.9273 25.1387Z" fill="#ffffff"/>
</g>
</g>
</g>
</g>
<g clip-path="url(#clip_7)">
<g opacity=".8">
<g clip-path="url(#clip_8)">
<g clip-path="url(#clip_9)">
<path transform="matrix(1,0,0,-1,0,32)" d="M12.6313 6.0117C12.6593 5.7387 12.4853 5.5457 12.1103 5.4337 11.9873 5.4517 11.8093 5.4477 11.5743 5.4197 11.4043 5.4197 10.8743 5.2827 9.9813 5.0107 8.9763 4.7297 8.2293 4.4657 7.7403 4.2207 7.6093 4.1557 7.4883 4.0687 7.3813 3.9607 7.2723 3.8527 7.2053 3.7987 7.1763 3.7987 7.0353 3.7797 6.6273 4.0237 5.9503 4.5327 5.7623 4.6447 5.5743 4.7657 5.3863 4.8977 5.1983 5.0297 5.0993 5.1847 5.0903 5.3637 5.0903 5.4287 5.4993 6.0437 6.3163 7.2087 7.3213 8.6377 8.1023 9.8307 8.6563 10.7887 9.5113 12.3017 9.9723 13.5007 10.0373 14.3837 9.3053 14.0837 8.5723 13.4077 7.8393 12.3537 7.7823 12.3067 7.7473 12.2207 7.7333 12.0937 7.7193 11.9657 7.6933 11.8797 7.6553 11.8327 7.5613 11.7097 7.4253 11.6497 7.2473 11.6497 6.9373 11.6497 6.5613 11.7997 6.1193 12.1007 5.9313 12.2027 5.7433 12.3067 5.5553 12.4107 5.3303 12.5327 5.2123 12.6407 5.2033 12.7347 5.1843 12.9507 5.4193 13.3687 5.9083 13.9897 6.4343 14.6467 7.0173 15.2057 7.6553 15.6657 8.4173 16.2307 9.0933 16.5117 9.6853 16.5117 9.9113 16.5117 10.1253 16.4397 10.3263 16.2937 10.5283 16.1487 10.7233 15.9997 10.9113 15.8497 11.6733 15.3237 12.1563 14.8257 12.3633 14.3557 12.4013 14.2617 12.4203 14.1397 12.4203 13.9897 12.4203 13.3307 12.0713 12.2597 11.3773 10.7757 10.7193 9.3747 10.0143 8.1587 9.2623 7.1247 9.5533 7.2187 9.9583 7.3597 10.4743 7.5477 10.5313 7.5757 10.6303 7.6417 10.7703 7.7447 10.8643 7.8107 10.9543 7.8387 11.0383 7.8297 11.2643 7.8007 11.5813 7.5357 11.9903 7.0327 12.3993 6.5307 12.6123 6.1897 12.6313 6.0117"/>
</g>
</g>
</g>
</g>
</g>
</svg>
