<svg xmlns="http://www.w3.org/2000/svg" xmlns:xlink="http://www.w3.org/1999/xlink" xmlns:inkscape="http://www.inkscape.org/namespaces/inkscape" version="1.1" width="32" height="32" viewBox="0 0 32 32">
<defs>
<clipPath id="clip_1">
<path transform="matrix(1,0,0,-1,0,32)" d="M0 0H32V32H0Z"/>
</clipPath>
<clipPath id="clip_2">
<path transform="matrix(1,0,0,-1,0,32)" d="M0 0H32V32H0Z"/>
</clipPath>
<clipPath id="clip_3">
<path transform="matrix(1,0,0,-1,0,32)" d="M0 0H32V32H0Z"/>
</clipPath>
<clipPath id="clip_4">
<path transform="matrix(1,0,0,-1,0,32)" d="M0 0H32V32H0Z"/>
</clipPath>
<clipPath id="clip_5">
<path transform="matrix(1,0,0,-1,0,32)" d="M15 7H26V26H15Z"/>
</clipPath>
<clipPath id="clip_6">
<path transform="matrix(1,0,0,-1,0,32)" d="M15.2909 7.06299H25.7334V25.69H15.2909Z"/>
</clipPath>
<clipPath id="clip_7">
<path transform="matrix(1,0,0,-1,0,32)" d="M0 0H32V32H0Z"/>
</clipPath>
<clipPath id="clip_8">
<path transform="matrix(1,0,0,-1,0,32)" d="M3 3H12V17H3Z"/>
</clipPath>
<clipPath id="clip_9">
<path transform="matrix(1,0,0,-1,0,32)" d="M3.61333 3.91029H11.1572V16.6243H3.61333Z"/>
</clipPath>
</defs>
<g>
<g clip-path="url(#clip_1)">
<g opacity=".8">
<g clip-path="url(#clip_2)">
<g clip-path="url(#clip_3)">
<path transform="matrix(1,0,0,-1,0,32)" d="M0 0H32V32H0Z" fill="#0000ff"/>
</g>
</g>
</g>
</g>
<g clip-path="url(#clip_4)">
<g opacity=".6">
<g clip-path="url(#clip_5)">
<g clip-path="url(#clip_6)">
<path transform="matrix(1,0,0,-1,0,32)" d="M25.3271 10.1787V7.0637H15.2911L15.2941 9.6707C18.2661 14.5327 20.0331 17.5407 20.5941 18.6967 21.1551 19.8517 21.4351 20.7527 21.4351 21.4007 21.4351 21.8967 21.3501 22.2677 21.1811 22.5117 21.0111 22.7567 20.7531 22.8787 20.4071 22.8787 20.0591 22.8787 19.8021 22.7427 19.6321 22.4727 19.4621 22.2017 19.3771 21.6637 19.3771 20.8587V19.1197H15.2911V19.7857C15.2911 20.8097 15.3441 21.6167 15.4491 22.2067 15.5541 22.7977 15.8141 23.3797 16.2281 23.9507 16.6421 24.5237 17.1801 24.9557 17.8421 25.2497 18.5041 25.5427 19.2981 25.6907 20.2241 25.6907 22.0381 25.6907 23.4101 25.2407 24.3391 24.3407 25.2681 23.4417 25.7331 22.3037 25.7331 20.9257 25.7331 19.8797 25.4721 18.7737 24.9491 17.6077 24.4261 16.4407 22.8851 13.9647 20.3261 10.1787Z" fill="#ffffff"/>
</g>
</g>
</g>
</g>
<g clip-path="url(#clip_7)">
<g opacity=".8">
<g clip-path="url(#clip_8)">
<g clip-path="url(#clip_9)">
<path transform="matrix(1,0,0,-1,0,32)" d="M11.1543 6.124C11.1823 5.851 11.0083 5.658 10.6333 5.546 10.5103 5.564 10.3323 5.56 10.0973 5.532 9.9273 5.532 9.3973 5.395 8.5043 5.123 7.4993 4.842 6.7513 4.578 6.2633 4.334 6.1323 4.269 6.0113 4.181 5.9043 4.073 5.7953 3.965 5.7283 3.911 5.6993 3.911 5.5583 3.892 5.1503 4.136 4.4733 4.645 4.2853 4.757 4.0973 4.878 3.9093 5.011 3.7213 5.143 3.6223 5.297 3.6133 5.476 3.6133 5.541 4.0223 6.156 4.8393 7.321 5.8443 8.75 6.6253 9.943 7.1793 10.901 8.0343 12.415 8.4953 13.613 8.5603 14.496 7.8283 14.196 7.0953 13.52 6.3623 12.466 6.3053 12.419 6.2703 12.333 6.2563 12.206 6.2423 12.078 6.2163 11.992 6.1783 11.945 6.0843 11.822 5.9483 11.762 5.7703 11.762 5.4603 11.762 5.0843 11.912 4.6423 12.213 4.4543 12.316 4.2663 12.419 4.0783 12.523 3.8533 12.645 3.7353 12.753 3.7263 12.847 3.7073 13.063 3.9423 13.481 4.4313 14.102 4.9573 14.759 5.5403 15.319 6.1783 15.779 6.9403 16.344 7.6163 16.624 8.2083 16.624 8.4343 16.624 8.6483 16.552 8.8493 16.406 9.0513 16.261 9.2463 16.112 9.4343 15.963 10.1963 15.436 10.6793 14.938 10.8863 14.468 10.9243 14.374 10.9433 14.252 10.9433 14.102 10.9433 13.443 10.5943 12.372 9.9003 10.888 9.2423 9.487 8.5373 8.271 7.7853 7.238 8.0763 7.331 8.4813 7.472 8.9973 7.66 9.0543 7.688 9.1533 7.754 9.2933 7.857 9.3873 7.923 9.4773 7.951 9.5613 7.942 9.7873 7.913 10.1043 7.648 10.5123 7.146 10.9223 6.643 11.1353 6.302 11.1543 6.124"/>
</g>
</g>
</g>
</g>
</g>
</svg>
