<svg xmlns="http://www.w3.org/2000/svg" xmlns:xlink="http://www.w3.org/1999/xlink" xmlns:inkscape="http://www.inkscape.org/namespaces/inkscape" version="1.1" width="32" height="32" viewBox="0 0 32 32">
<defs>
<clipPath id="clip_1">
<path transform="matrix(1,0,0,-1,0,32)" d="M0 0H32V32H0Z"/>
</clipPath>
<clipPath id="clip_2">
<path transform="matrix(1,0,0,-1,0,32)" d="M0 0H32V32H0Z"/>
</clipPath>
<clipPath id="clip_3">
<path transform="matrix(1,0,0,-1,0,32)" d="M0 0H32V32H0Z"/>
</clipPath>
<clipPath id="clip_4">
<path transform="matrix(1,0,0,-1,0,32)" d="M0 0H32V32H0Z"/>
</clipPath>
<clipPath id="clip_5">
<path transform="matrix(1,0,0,-1,0,32)" d="M15 6H26V26H15Z"/>
</clipPath>
<clipPath id="clip_6">
<path transform="matrix(1,0,0,-1,0,32)" d="M15.1635 6.17638H25.9221V25.176H15.1635Z"/>
</clipPath>
<clipPath id="clip_7">
<path transform="matrix(1,0,0,-1,0,32)" d="M0 0H32V32H0Z"/>
</clipPath>
<clipPath id="clip_8">
<path transform="matrix(1,0,0,-1,0,32)" d="M3 2H11V16H3Z"/>
</clipPath>
<clipPath id="clip_9">
<path transform="matrix(1,0,0,-1,0,32)" d="M3.74904 2.96358H10.741V15.5955H3.74904Z"/>
</clipPath>
</defs>
<g>
<g clip-path="url(#clip_1)">
<g opacity=".6">
<g clip-path="url(#clip_2)">
<g clip-path="url(#clip_3)">
<path transform="matrix(1,0,0,-1,0,32)" d="M0 0H32V32H0Z"/>
</g>
</g>
</g>
</g>
<g clip-path="url(#clip_4)">
<g opacity=".7">
<g clip-path="url(#clip_5)">
<g clip-path="url(#clip_6)">
<path transform="matrix(1,0,0,-1,0,32)" d="M23.8677 16.8955C24.5597 16.6625 25.0757 16.2805 25.4137 15.7495 25.7527 15.2165 25.9217 13.9735 25.9217 12.0165 25.9217 10.5625 25.7567 9.4355 25.4257 8.6335 25.0947 7.8305 24.5227 7.2205 23.7097 6.8025 22.8967 6.3845 21.8537 6.1765 20.5827 6.1765 19.1377 6.1765 18.0027 6.4185 17.1787 6.9045 16.3547 7.3895 15.8127 7.9845 15.5537 8.6885 15.2937 9.3915 15.1637 10.6135 15.1637 12.3515V13.7965H19.7237V10.8275C19.7237 10.0375 19.7717 9.5355 19.8657 9.3205 19.9597 9.1055 20.1687 8.9995 20.4927 8.9995 20.8457 8.9995 21.0787 9.1335 21.1917 9.4055 21.3047 9.6755 21.3617 10.3835 21.3617 11.5275V12.7915C21.3617 13.4925 21.2827 14.0035 21.1237 14.3275 20.9667 14.6505 20.7327 14.8635 20.4247 14.9645 20.1157 15.0665 19.5177 15.1245 18.6297 15.1395V17.7925C19.7127 17.7925 20.3827 17.8335 20.6387 17.9165 20.8947 17.9995 21.0787 18.1805 21.1917 18.4585 21.3047 18.7375 21.3617 19.1735 21.3617 19.7685V20.7845C21.3617 21.4235 21.2957 21.8455 21.1637 22.0485 21.0327 22.2515 20.8267 22.3535 20.5487 22.3535 20.2327 22.3535 20.0157 22.2465 19.8997 22.0325 19.7827 21.8175 19.7237 21.3605 19.7237 20.6605V19.1595H15.1637V20.7165C15.1637 22.4625 15.5627 23.6425 16.3607 24.2555 17.1587 24.8695 18.4267 25.1755 20.1647 25.1755 22.3397 25.1755 23.8147 24.7505 24.5897 23.9005 25.3657 23.0515 25.7527 21.8705 25.7527 20.3595 25.7527 19.3355 25.6137 18.5965 25.3347 18.1425 25.0567 17.6875 24.5677 17.2715 23.8677 16.8955" fill="#ffffff"/>
</g>
</g>
</g>
</g>
<g clip-path="url(#clip_7)">
<g opacity=".5">
<g clip-path="url(#clip_8)">
<g clip-path="url(#clip_9)">
<path transform="matrix(1,0,0,-1,0,32)" d="M10.6001 12.4639C10.5341 11.8059 10.1061 11.0169 9.3171 10.0969 10.2661 9.2969 10.7411 8.3869 10.7411 7.3619 10.7411 6.3089 10.2761 5.2989 9.3461 4.3309 8.4991 3.4669 7.7061 3.0119 6.9641 2.9639 6.6621 2.9459 6.0471 3.3119 5.1171 4.0639 4.2151 4.7959 3.7591 5.2569 3.7491 5.4449 3.7401 5.6609 3.8441 5.8589 4.0601 6.0369 4.2761 6.2149 4.4821 6.2999 4.6801 6.2909 4.8121 6.2809 5.0231 6.1079 5.3141 5.7689 5.6051 5.4309 5.8731 5.2369 6.1181 5.1909 6.5031 5.1079 7.0241 5.4959 7.6821 6.3599 8.3111 7.1789 8.6271 7.7839 8.6271 8.1789 8.6271 8.3489 8.5181 8.4339 8.3021 8.4339 8.1521 8.4339 7.9741 8.3579 7.7671 8.2069 7.6161 8.1049 7.4681 7.9989 7.3231 7.8909 7.1771 7.7819 7.0341 7.7369 6.8931 7.7569 6.7331 7.7759 6.4771 7.9259 6.1241 8.2069 5.7721 8.4889 5.4831 8.7809 5.2581 9.0809 5.2111 9.1469 5.1871 9.2229 5.1871 9.3069 5.1871 9.5699 5.3141 9.7589 5.5681 9.8709 5.9251 10.0299 6.3571 10.3679 6.8651 10.8859 7.5981 11.6469 8.0531 12.4549 8.2321 13.3099 7.8561 13.2259 7.4381 12.8749 6.9771 12.2599 6.5171 11.6449 6.2301 11.3179 6.1181 11.2799 5.9391 11.2139 5.5991 11.3269 5.0961 11.6189 4.5931 11.9099 4.2661 12.1679 4.1161 12.3949 4.0881 12.4309 4.0741 12.4779 4.0741 12.5339 4.0741 12.6849 4.2011 12.9009 4.4541 13.1839 5.2341 14.0579 5.7701 14.6159 6.0611 14.8599 6.6721 15.3769 7.2541 15.6209 7.8091 15.5939 8.4301 15.5559 9.0651 15.1749 9.7191 14.4519 10.3721 13.7289 10.6661 13.0659 10.6001 12.4639" fill="#ffffff"/>
</g>
</g>
</g>
</g>
</g>
</svg>
