<svg xmlns="http://www.w3.org/2000/svg" xmlns:xlink="http://www.w3.org/1999/xlink" xmlns:inkscape="http://www.inkscape.org/namespaces/inkscape" version="1.1" width="32" height="32" viewBox="0 0 32 32">
<defs>
<clipPath id="clip_1">
<path transform="matrix(1,0,0,-1,0,32)" d="M0 0H32V32H0Z"/>
</clipPath>
<clipPath id="clip_2">
<path transform="matrix(1,0,0,-1,0,32)" d="M0 0H32V32H0Z"/>
</clipPath>
<clipPath id="clip_3">
<path transform="matrix(1,0,0,-1,0,32)" d="M0 0H32V32H0Z"/>
</clipPath>
<clipPath id="clip_4">
<path transform="matrix(1,0,0,-1,0,32)" d="M0 0H32V32H0Z"/>
</clipPath>
<clipPath id="clip_5">
<path transform="matrix(1,0,0,-1,0,32)" d="M15 6H26V26H15Z"/>
</clipPath>
<clipPath id="clip_6">
<path transform="matrix(1,0,0,-1,0,32)" d="M15.1635 6.17638H25.9221V25.176H15.1635Z"/>
</clipPath>
<clipPath id="clip_7">
<path transform="matrix(1,0,0,-1,0,32)" d="M0 0H32V32H0Z"/>
</clipPath>
<clipPath id="clip_8">
<path transform="matrix(1,0,0,-1,0,32)" d="M4 3H12V17H4Z"/>
</clipPath>
<clipPath id="clip_9">
<path transform="matrix(1,0,0,-1,0,32)" d="M4.48125 3.86426H12.0011V16.7776H4.48125Z"/>
</clipPath>
</defs>
<g>
<g clip-path="url(#clip_1)">
<g opacity=".2">
<g clip-path="url(#clip_2)">
<g clip-path="url(#clip_3)">
<path transform="matrix(1,0,0,-1,0,32)" d="M0 0H32V32H0Z"/>
</g>
</g>
</g>
</g>
<g clip-path="url(#clip_4)">
<g opacity=".5">
<g clip-path="url(#clip_5)">
<g clip-path="url(#clip_6)">
<path transform="matrix(1,0,0,-1,0,32)" d="M23.8677 16.8955C24.5597 16.6625 25.0757 16.2805 25.4137 15.7495 25.7527 15.2165 25.9217 13.9735 25.9217 12.0165 25.9217 10.5625 25.7567 9.4355 25.4257 8.6335 25.0947 7.8305 24.5227 7.2205 23.7097 6.8025 22.8967 6.3845 21.8537 6.1765 20.5827 6.1765 19.1377 6.1765 18.0027 6.4185 17.1787 6.9045 16.3547 7.3895 15.8127 7.9845 15.5537 8.6885 15.2937 9.3915 15.1637 10.6135 15.1637 12.3515V13.7965H19.7237V10.8275C19.7237 10.0375 19.7717 9.5355 19.8657 9.3205 19.9597 9.1055 20.1687 8.9995 20.4927 8.9995 20.8457 8.9995 21.0787 9.1335 21.1917 9.4055 21.3047 9.6755 21.3617 10.3835 21.3617 11.5275V12.7915C21.3617 13.4925 21.2827 14.0035 21.1237 14.3275 20.9667 14.6505 20.7327 14.8635 20.4247 14.9645 20.1157 15.0665 19.5177 15.1245 18.6297 15.1395V17.7925C19.7127 17.7925 20.3827 17.8335 20.6387 17.9165 20.8947 17.9995 21.0787 18.1805 21.1917 18.4585 21.3047 18.7375 21.3617 19.1735 21.3617 19.7685V20.7845C21.3617 21.4235 21.2957 21.8455 21.1637 22.0485 21.0327 22.2515 20.8267 22.3535 20.5487 22.3535 20.2327 22.3535 20.0157 22.2465 19.8997 22.0325 19.7827 21.8175 19.7237 21.3605 19.7237 20.6605V19.1595H15.1637V20.7165C15.1637 22.4625 15.5627 23.6425 16.3607 24.2555 17.1587 24.8695 18.4267 25.1755 20.1647 25.1755 22.3397 25.1755 23.8147 24.7505 24.5897 23.9005 25.3657 23.0515 25.7527 21.8705 25.7527 20.3595 25.7527 19.3355 25.6137 18.5965 25.3347 18.1425 25.0567 17.6875 24.5677 17.2715 23.8677 16.8955"/>
</g>
</g>
</g>
</g>
<g clip-path="url(#clip_7)">
<g opacity=".8">
<g clip-path="url(#clip_8)">
<g clip-path="url(#clip_9)">
<path transform="matrix(1,0,0,-1,0,32)" d="M11.9976 14.8867C12.0166 14.7827 11.9596 14.6577 11.8286 14.5067 11.6966 14.3557 11.5556 14.2667 11.4056 14.2387 11.2926 14.2197 11.1236 14.2517 10.8976 14.3367 10.6256 14.4307 10.4236 14.4877 10.2916 14.5067 9.9536 14.5427 9.5356 14.4917 9.0376 14.3507 8.4176 14.1817 7.8766 13.9087 7.4166 13.5337V11.9967C7.8116 12.1757 8.1916 12.2657 8.5586 12.2657 9.0936 12.2657 9.7516 11.9647 10.5316 11.3627 11.3116 10.7617 11.7016 10.2257 11.7016 9.7567 11.7016 8.2997 11.3326 6.9527 10.5956 5.7177 9.8566 4.4827 9.0376 3.8647 8.1356 3.8647 7.6746 3.8647 6.9606 4.2027 5.9936 4.8797 5.0246 5.5567 4.5216 6.0917 4.4846 6.4867 4.4656 6.6837 4.5216 6.8737 4.6536 7.0567 4.7856 7.2407 4.9456 7.3357 5.1326 7.3457 5.4246 7.3657 5.8286 7.1387 6.3456 6.6687 6.9096 6.1327 7.2096 5.8617 7.2476 5.8527 7.7366 6.1237 8.2336 6.7267 8.7416 7.6567 9.2306 8.5487 9.4746 9.2487 9.4746 9.7567 9.4746 10.0667 9.3246 10.2217 9.0226 10.2217 8.7416 10.2217 8.3556 10.0197 7.8676 9.6157 7.3786 9.2107 7.1206 9.0087 7.0926 9.0087 6.9046 8.9997 6.5516 9.1157 6.0356 9.3617 5.5186 9.6057 5.1616 9.8407 4.9646 10.0667 4.8986 10.1517 4.8656 10.2437 4.8656 10.3487 4.8656 10.3957 4.8766 10.4817 4.9006 10.6097 4.9246 10.7367 4.9356 10.8357 4.9356 10.9117V15.1557C4.9356 15.2957 5.0226 15.4367 5.1966 15.5767 5.3706 15.7177 5.5606 15.8077 5.7676 15.8457 5.8246 15.8547 5.8986 15.8427 5.9936 15.8097 6.0866 15.7767 6.1576 15.7607 6.2046 15.7607 6.2516 15.7607 6.3026 15.7747 6.3596 15.8027 7.0446 16.1127 7.8306 16.3577 8.7136 16.5357 9.3616 16.6677 9.7986 16.7287 10.0236 16.7197 10.1276 16.7377 10.2266 16.7557 10.3196 16.7757 10.4236 16.7847 10.5176 16.7617 10.6016 16.7037 10.8556 16.5177 11.1326 16.2307 11.4336 15.8457 11.7626 15.4317 11.9506 15.1127 11.9976 14.8867"/>
</g>
</g>
</g>
</g>
</g>
</svg>
