<svg xmlns="http://www.w3.org/2000/svg" xmlns:xlink="http://www.w3.org/1999/xlink" xmlns:inkscape="http://www.inkscape.org/namespaces/inkscape" version="1.1" width="32" height="32" viewBox="0 0 32 32">
<defs>
<clipPath id="clip_1">
<path transform="matrix(1,0,0,-1,0,32)" d="M0 0H32V32H0Z"/>
</clipPath>
<clipPath id="clip_2">
<path transform="matrix(1,0,0,-1,0,32)" d="M0 0H32V32H0Z"/>
</clipPath>
<clipPath id="clip_3">
<path transform="matrix(1,0,0,-1,0,32)" d="M0 0H32V32H0Z"/>
</clipPath>
<clipPath id="clip_4">
<path transform="matrix(1,0,0,-1,0,32)" d="M0 0H32V32H0Z"/>
</clipPath>
<clipPath id="clip_5">
<path transform="matrix(1,0,0,-1,0,32)" d="M15 6H26V26H15Z"/>
</clipPath>
<clipPath id="clip_6">
<path transform="matrix(1,0,0,-1,0,32)" d="M15.1635 6.17638H25.9221V25.176H15.1635Z"/>
</clipPath>
<clipPath id="clip_7">
<path transform="matrix(1,0,0,-1,0,32)" d="M0 0H32V32H0Z"/>
</clipPath>
<clipPath id="clip_8">
<path transform="matrix(1,0,0,-1,0,32)" d="M3 3H14V17H3Z"/>
</clipPath>
<clipPath id="clip_9">
<path transform="matrix(1,0,0,-1,0,32)" d="M3.61418 3.20851H13.2553009V16.0536H3.61418Z"/>
</clipPath>
</defs>
<g>
<g clip-path="url(#clip_1)">
<g opacity=".4">
<g clip-path="url(#clip_2)">
<g clip-path="url(#clip_3)">
<path transform="matrix(1,0,0,-1,0,32)" d="M0 0H32V32H0Z"/>
</g>
</g>
</g>
</g>
<g clip-path="url(#clip_4)">
<g opacity=".5">
<g clip-path="url(#clip_5)">
<g clip-path="url(#clip_6)">
<path transform="matrix(1,0,0,-1,0,32)" d="M23.8677 16.8955C24.5597 16.6625 25.0757 16.2805 25.4137 15.7495 25.7527 15.2165 25.9217 13.9735 25.9217 12.0165 25.9217 10.5625 25.7567 9.4355 25.4257 8.6335 25.0947 7.8305 24.5227 7.2205 23.7097 6.8025 22.8967 6.3845 21.8537 6.1765 20.5827 6.1765 19.1377 6.1765 18.0027 6.4185 17.1787 6.9045 16.3547 7.3895 15.8127 7.9845 15.5537 8.6885 15.2937 9.3915 15.1637 10.6135 15.1637 12.3515V13.7965H19.7237V10.8275C19.7237 10.0375 19.7717 9.5355 19.8657 9.3205 19.9597 9.1055 20.1687 8.9995 20.4927 8.9995 20.8457 8.9995 21.0787 9.1335 21.1917 9.4055 21.3047 9.6755 21.3617 10.3835 21.3617 11.5275V12.7915C21.3617 13.4925 21.2827 14.0035 21.1237 14.3275 20.9667 14.6505 20.7327 14.8635 20.4247 14.9645 20.1157 15.0665 19.5177 15.1245 18.6297 15.1395V17.7925C19.7127 17.7925 20.3827 17.8335 20.6387 17.9165 20.8947 17.9995 21.0787 18.1805 21.1917 18.4585 21.3047 18.7375 21.3617 19.1735 21.3617 19.7685V20.7845C21.3617 21.4235 21.2957 21.8455 21.1637 22.0485 21.0327 22.2515 20.8267 22.3535 20.5487 22.3535 20.2327 22.3535 20.0157 22.2465 19.8997 22.0325 19.7827 21.8175 19.7237 21.3605 19.7237 20.6605V19.1595H15.1637V20.7165C15.1637 22.4625 15.5627 23.6425 16.3607 24.2555 17.1587 24.8695 18.4267 25.1755 20.1647 25.1755 22.3397 25.1755 23.8147 24.7505 24.5897 23.9005 25.3657 23.0515 25.7527 21.8705 25.7527 20.3595 25.7527 19.3355 25.6137 18.5965 25.3347 18.1425 25.0567 17.6875 24.5677 17.2715 23.8677 16.8955"/>
</g>
</g>
</g>
</g>
<g clip-path="url(#clip_7)">
<g opacity=".8">
<g clip-path="url(#clip_8)">
<g clip-path="url(#clip_9)">
<path transform="matrix(1,0,0,-1,0,32)" d="M8.8013 9.5264V11.4714L7.2933 9.0194ZM13.2553 8.3574C13.2553 8.1494 13.0533 7.9714 12.6493 7.8214 12.2453 7.7554 11.7893 7.6744 11.2823 7.5824V4.2834C11.2823 4.2454 11.2913 4.1884 11.3103 4.1144 11.3283 4.0394 11.3333 3.9734 11.3243 3.9174 11.3053 3.7194 11.2143 3.5474 11.0493 3.4024 10.8843 3.2554 10.7273 3.1934 10.5773 3.2124 10.0043 3.2874 9.3653 3.7334 8.6603 4.5514 8.5853 4.6454 8.5573 4.8094 8.5753 5.0454 8.5753 5.0914 8.6083 5.1474 8.6743 5.2134 8.7393 5.2794 8.7733 5.3404 8.7733 5.3964V7.2434C7.9933 6.9904 7.4053 6.8064 7.0113 6.6944 6.3063 6.4974 5.8223 6.3874 5.5593 6.3694 5.3343 6.3494 4.9813 6.5104 4.5023 6.8484 4.0793 7.1494 3.8073 7.3894 3.6843 7.5674 3.6373 7.6334 3.6143 7.7034 3.6143 7.7794 3.6143 7.8914 3.7183 8.0934 3.9243 8.3844 4.0283 8.4784 4.1733 8.6384 4.3613 8.8644 4.3803 8.8824 5.1083 10.0394 6.5463 12.3324 7.9563 14.5784 8.7123 15.7284 8.8153 15.7844 9.1253 15.9724 9.3563 16.0624 9.5063 16.0524 9.7223 16.0444 10.1073 15.8424 10.6613 15.4544 11.2163 15.0644 11.5123 14.7754 11.5503 14.5874 11.5783 14.4834 11.4843 14.2824 11.2683 13.9804V10.1464C11.5873 10.2034 11.7573 10.2314 11.7753 10.2314 11.8883 10.2314 11.9873 10.1984 12.0713 10.1324 12.2403 9.9824 12.4803 9.6704 12.7903 9.1964 13.1003 8.7204 13.2553 8.4414 13.2553 8.3574"/>
</g>
</g>
</g>
</g>
</g>
</svg>
