<svg xmlns="http://www.w3.org/2000/svg" xmlns:xlink="http://www.w3.org/1999/xlink" xmlns:inkscape="http://www.inkscape.org/namespaces/inkscape" version="1.1" width="32" height="32" viewBox="0 0 32 32">
<defs>
<clipPath id="clip_1">
<path transform="matrix(1,0,0,-1,0,32)" d="M0 0H32V32H0Z"/>
</clipPath>
<clipPath id="clip_2">
<path transform="matrix(1,0,0,-1,0,32)" d="M0 0H32V32H0Z"/>
</clipPath>
<clipPath id="clip_3">
<path transform="matrix(1,0,0,-1,0,32)" d="M0 0H32V32H0Z"/>
</clipPath>
<clipPath id="clip_4">
<path transform="matrix(1,0,0,-1,0,32)" d="M0 0H32V32H0Z"/>
</clipPath>
<clipPath id="clip_5">
<path transform="matrix(1,0,0,-1,0,32)" d="M15 6H26V26H15Z"/>
</clipPath>
<clipPath id="clip_6">
<path transform="matrix(1,0,0,-1,0,32)" d="M15.4005 6.40688H25.7533V25.0339H15.4005Z"/>
</clipPath>
</defs>
<g>
<g clip-path="url(#clip_1)">
<g opacity=".4">
<g clip-path="url(#clip_2)">
<g clip-path="url(#clip_3)">
<path transform="matrix(1,0,0,-1,0,32)" d="M0 0H32V32H0Z" fill="#00ff00"/>
</g>
</g>
</g>
</g>
<g clip-path="url(#clip_4)">
<g opacity=".5">
<g clip-path="url(#clip_5)">
<g clip-path="url(#clip_6)">
<path transform="matrix(1,0,0,-1,0,32)" d="M24.9072 25.0342V22.1102H19.5442V19.0062C20.2152 19.8412 21.0782 20.2592 22.1352 20.2592 23.3262 20.2592 24.2272 19.9072 24.8382 19.2032 25.4482 18.4992 25.7532 17.1462 25.7532 15.1442V12.5372C25.7532 11.2422 25.6942 10.2922 25.5762 9.6862 25.4592 9.0802 25.2072 8.5192 24.8222 8.0042 24.4362 7.4882 23.8992 7.0942 23.2102 6.8192 22.5222 6.5442 21.6812 6.4072 20.6892 6.4072 19.5752 6.4072 18.5942 6.6122 17.7452 7.0222 16.8952 7.4322 16.2922 8.0442 15.9352 8.8562 15.5792 9.6692 15.4002 10.9272 15.4002 12.6272V13.6212H19.7252V12.4802C19.7252 11.2992 19.7652 10.4602 19.8432 9.9632 19.9222 9.4662 20.1932 9.2182 20.6572 9.2182 20.8712 9.2182 21.0442 9.2892 21.1762 9.4322 21.3082 9.5752 21.3802 9.7292 21.3902 9.8952 21.4012 10.0602 21.4132 10.7792 21.4282 12.0522V15.6752C21.4282 16.3602 21.3602 16.8272 21.2242 17.0752 21.0892 17.3232 20.8642 17.4472 20.5502 17.4472 20.3502 17.4472 20.1822 17.3842 20.0472 17.2562 19.9112 17.1282 19.8242 16.9902 19.7842 16.8442 19.7452 16.6972 19.7252 16.3562 19.7252 15.8222H15.4432L15.6252 25.0342Z"/>
</g>
</g>
</g>
<path transform="matrix(1,0,0,-1,0,32)" d="M7.7671 9.5264V11.4714L6.2591 9.0194ZM12.2211 8.3574C12.2211 8.1494 12.0191 7.9714 11.6151 7.8214 11.2111 7.7554 10.7551 7.6744 10.2481 7.5824V4.2834C10.2481 4.2454 10.2571 4.1884 10.2761 4.1144 10.2941 4.0394 10.2991 3.9734 10.2901 3.9174 10.2711 3.7194 10.1801 3.5474 10.0151 3.4024 9.8501 3.2554 9.6931 3.1934 9.5431 3.2124 8.9701 3.2874 8.3301 3.7334 7.6261 4.5514 7.5511 4.6454 7.5221 4.8094 7.5411 5.0454 7.5411 5.0914 7.5741 5.1474 7.6401 5.2134 7.7051 5.2794 7.7391 5.3404 7.7391 5.3964V7.2434C6.9591 6.9904 6.3711 6.8064 5.9771 6.6944 5.2721 6.4974 4.7881 6.3874 4.5251 6.3694 4.3001 6.3494 3.9471 6.5104 3.4681 6.8484 3.0451 7.1494 2.7721 7.3894 2.6501 7.5674 2.6031 7.6334 2.5801 7.7034 2.5801 7.7794 2.5801 7.8914 2.6841 8.0934 2.8901 8.3844 2.9941 8.4784 3.1391 8.6384 3.3271 8.8644 3.3461 8.8824 4.0741 10.0394 5.5121 12.3324 6.9221 14.5784 7.6781 15.7284 7.7811 15.7844 8.0911 15.9724 8.3221 16.0624 8.4721 16.0524 8.6881 16.0444 9.0731 15.8424 9.6271 15.4544 10.1821 15.0644 10.4781 14.7754 10.5161 14.5874 10.5441 14.4834 10.4501 14.2824 10.2341 13.9804V10.1464C10.5531 10.2034 10.7231 10.2314 10.7411 10.2314 10.8541 10.2314 10.9531 10.1984 11.0371 10.1324 11.2061 9.9824 11.4461 9.6704 11.7561 9.1964 12.0661 8.7204 12.2211 8.4414 12.2211 8.3574"/>
</g>
</g>
</svg>
