<svg xmlns="http://www.w3.org/2000/svg" xmlns:xlink="http://www.w3.org/1999/xlink" xmlns:inkscape="http://www.inkscape.org/namespaces/inkscape" version="1.1" width="32" height="32" viewBox="0 0 32 32">
<defs>
<clipPath id="clip_1">
<path transform="matrix(1,0,0,-1,0,32)" d="M0 0H32V32H0Z"/>
</clipPath>
<clipPath id="clip_2">
<path transform="matrix(1,0,0,-1,0,32)" d="M0 0H32V32H0Z"/>
</clipPath>
<clipPath id="clip_3">
<path transform="matrix(1,0,0,-1,0,32)" d="M0 0H32V32H0Z"/>
</clipPath>
<clipPath id="clip_4">
<path transform="matrix(1,0,0,-1,0,32)" d="M0 0H32V32H0Z"/>
</clipPath>
<clipPath id="clip_5">
<path transform="matrix(1,0,0,-1,0,32)" d="M15 6H24V26H15Z"/>
</clipPath>
<clipPath id="clip_6">
<path transform="matrix(1,0,0,-1,0,32)" d="M15.9039 6.86145H23.614399V25.1385H15.9039Z"/>
</clipPath>
<clipPath id="clip_7">
<path transform="matrix(1,0,0,-1,0,32)" d="M0 0H32V32H0Z"/>
</clipPath>
<clipPath id="clip_8">
<path transform="matrix(1,0,0,-1,0,32)" d="M5 3H15V17H5Z"/>
</clipPath>
<clipPath id="clip_9">
<path transform="matrix(1,0,0,-1,0,32)" d="M5.29543 3.20851H14.936501V16.0536H5.29543Z"/>
</clipPath>
</defs>
<g>
<g clip-path="url(#clip_1)">
<g opacity=".4">
<g clip-path="url(#clip_2)">
<g clip-path="url(#clip_3)">
<path transform="matrix(1,0,0,-1,0,32)" d="M0 0H32V32H0Z" fill="#ff0000"/>
</g>
</g>
</g>
</g>
<g clip-path="url(#clip_4)">
<g opacity=".5">
<g clip-path="url(#clip_5)">
<g clip-path="url(#clip_6)">
<path transform="matrix(1,0,0,-1,0,32)" d="M23.6143 25.1387V6.8617H19.0533V16.6597C19.0533 18.0757 19.0193 18.9257 18.9523 19.2117 18.8843 19.4977 18.6973 19.7137 18.3933 19.8617 18.0883 20.0077 17.4093 20.0807 16.3553 20.0807H15.9043V22.2107C18.1093 22.6867 19.7833 23.6607 20.9273 25.1387Z"/>
</g>
</g>
</g>
</g>
<g clip-path="url(#clip_7)">
<g opacity=".8">
<g clip-path="url(#clip_8)">
<g clip-path="url(#clip_9)">
<path transform="matrix(1,0,0,-1,0,32)" d="M10.4824 9.5264V11.4714L8.9744 9.0194ZM14.9364 8.3574C14.9364 8.1494 14.7344 7.9714 14.3304 7.8214 13.9264 7.7554 13.4704 7.6744 12.9634 7.5824V4.2834C12.9634 4.2454 12.9724 4.1884 12.9914 4.1144 13.0094 4.0394 13.0144 3.9734 13.0054 3.9174 12.9864 3.7194 12.8954 3.5474 12.7304 3.4024 12.5654 3.2554 12.4094 3.1934 12.2584 3.2124 11.6854 3.2874 11.0464 3.7334 10.3414 4.5514 10.2664 4.6454 10.2384 4.8094 10.2564 5.0454 10.2564 5.0914 10.2894 5.1474 10.3554 5.2134 10.4204 5.2794 10.4544 5.3404 10.4544 5.3964V7.2434C9.6744 6.9904 9.0864 6.8064 8.6924 6.6944 7.9874 6.4974 7.5034 6.3874 7.2404 6.3694 7.0154 6.3494 6.6624 6.5104 6.1834 6.8484 5.7604 7.1494 5.4884 7.3894 5.3664 7.5674 5.3184 7.6334 5.2954 7.7034 5.2954 7.7794 5.2954 7.8914 5.3994 8.0934 5.6054 8.3844 5.7094 8.4784 5.8544 8.6384 6.0434 8.8644 6.0614 8.8824 6.7894 10.0394 8.2274 12.3324 9.6374 14.5784 10.3934 15.7284 10.4964 15.7844 10.8064 15.9724 11.0374 16.0624 11.1874 16.0524 11.4034 16.0444 11.7884 15.8424 12.3424 15.4544 12.8974 15.0644 13.1934 14.7754 13.2314 14.5874 13.2594 14.4834 13.1654 14.2824 12.9494 13.9804V10.1464C13.2684 10.2034 13.4384 10.2314 13.4574 10.2314 13.5694 10.2314 13.6684 10.1984 13.7534 10.1324 13.9214 9.9824 14.1614 9.6704 14.4714 9.1964 14.7814 8.7204 14.9364 8.4414 14.9364 8.3574"/>
</g>
</g>
</g>
</g>
</g>
</svg>
