<svg xmlns="http://www.w3.org/2000/svg" xmlns:xlink="http://www.w3.org/1999/xlink" xmlns:inkscape="http://www.inkscape.org/namespaces/inkscape" version="1.1" width="32" height="32" viewBox="0 0 32 32">
<defs>
<clipPath id="clip_1">
<path transform="matrix(1,0,0,-1,0,32)" d="M0 0H32V32H0Z"/>
</clipPath>
<clipPath id="clip_2">
<path transform="matrix(1,0,0,-1,0,32)" d="M0 0H32V32H0Z"/>
</clipPath>
<clipPath id="clip_3">
<path transform="matrix(1,0,0,-1,0,32)" d="M0 0H32V32H0Z"/>
</clipPath>
<clipPath id="clip_4">
<path transform="matrix(1,0,0,-1,0,32)" d="M0 0H32V32H0Z"/>
</clipPath>
<clipPath id="clip_5">
<path transform="matrix(1,0,0,-1,0,32)" d="M15 6H26V26H15Z"/>
</clipPath>
<clipPath id="clip_6">
<path transform="matrix(1,0,0,-1,0,32)" d="M15.4005 6.40688H25.7533V25.0339H15.4005Z"/>
</clipPath>
</defs>
<g>
<g clip-path="url(#clip_1)">
<g opacity=".6">
<g clip-path="url(#clip_2)">
<g clip-path="url(#clip_3)">
<path transform="matrix(1,0,0,-1,0,32)" d="M0 0H32V32H0Z" fill="#00ff00"/>
</g>
</g>
</g>
</g>
<g clip-path="url(#clip_4)">
<g opacity=".5">
<g clip-path="url(#clip_5)">
<g clip-path="url(#clip_6)">
<path transform="matrix(1,0,0,-1,0,32)" d="M24.9072 25.0342V22.1102H19.5442V19.0062C20.2152 19.8412 21.0782 20.2592 22.1352 20.2592 23.3262 20.2592 24.2272 19.9072 24.8382 19.2032 25.4482 18.4992 25.7532 17.1462 25.7532 15.1442V12.5372C25.7532 11.2422 25.6942 10.2922 25.5762 9.6862 25.4592 9.0802 25.2072 8.5192 24.8222 8.0042 24.4362 7.4882 23.8992 7.0942 23.2102 6.8192 22.5222 6.5442 21.6812 6.4072 20.6892 6.4072 19.5752 6.4072 18.5942 6.6122 17.7452 7.0222 16.8952 7.4322 16.2922 8.0442 15.9352 8.8562 15.5792 9.6692 15.4002 10.9272 15.4002 12.6272V13.6212H19.7252V12.4802C19.7252 11.2992 19.7652 10.4602 19.8432 9.9632 19.9222 9.4662 20.1932 9.2182 20.6572 9.2182 20.8712 9.2182 21.0442 9.2892 21.1762 9.4322 21.3082 9.5752 21.3802 9.7292 21.3902 9.8952 21.4012 10.0602 21.4132 10.7792 21.4282 12.0522V15.6752C21.4282 16.3602 21.3602 16.8272 21.2242 17.0752 21.0892 17.3232 20.8642 17.4472 20.5502 17.4472 20.3502 17.4472 20.1822 17.3842 20.0472 17.2562 19.9112 17.1282 19.8242 16.9902 19.7842 16.8442 19.7452 16.6972 19.7252 16.3562 19.7252 15.8222H15.4432L15.6252 25.0342Z"/>
</g>
</g>
</g>
<path transform="matrix(1,0,0,-1,0,32)" d="M10.7554 13.2197C10.6894 12.5617 10.2624 11.7727 9.4734 10.8527 10.4214 10.0527 10.8964 9.1427 10.8964 8.1177 10.8964 7.0647 10.4314 6.0547 9.5014 5.0867 8.6554 4.2227 7.8614 3.7667 7.1194 3.7197 6.8174 3.7017 6.2024 4.0677 5.2724 4.8197 4.3704 5.5517 3.9144 6.0127 3.9054 6.2007 3.8964 6.4167 3.9994 6.6147 4.2154 6.7927 4.4314 6.9707 4.6384 7.0557 4.8354 7.0467 4.9674 7.0367 5.1784 6.8637 5.4694 6.5247 5.7614 6.1867 6.0284 5.9927 6.2734 5.9467 6.6584 5.8627 7.1804 6.2517 7.8384 7.1157 8.4664 7.9347 8.7824 8.5397 8.7824 8.9347 8.7824 9.1047 8.6734 9.1897 8.4584 9.1897 8.3074 9.1897 8.1294 9.1137 7.9224 8.9627 7.7724 8.8607 7.6244 8.7547 7.4784 8.6467 7.3324 8.5377 7.1904 8.4927 7.0484 8.5127 6.8884 8.5317 6.6324 8.6807 6.2804 8.9627 5.9284 9.2447 5.6394 9.5367 5.4134 9.8367 5.3664 9.9027 5.3424 9.9787 5.3424 10.0627 5.3424 10.3257 5.4694 10.5137 5.7234 10.6267 6.0804 10.7857 6.5134 11.1237 7.0204 11.6417 7.7534 12.4027 8.2094 13.2107 8.3874 14.0657 8.0114 13.9817 7.5934 13.6307 7.1324 13.0157 6.6724 12.3997 6.3864 12.0737 6.2734 12.0357 6.0944 11.9697 5.7544 12.0827 5.2514 12.3747 4.7494 12.6657 4.4224 12.9237 4.2714 13.1507 4.2434 13.1867 4.2304 13.2337 4.2304 13.2897 4.2304 13.4407 4.3564 13.6567 4.6094 13.9397 5.3904 14.8137 5.9254 15.3717 6.2174 15.6157 6.8274 16.1327 7.4104 16.3767 7.9644 16.3497 8.5854 16.3117 9.2214 15.9307 9.8744 15.2077 10.5274 14.4847 10.8214 13.8217 10.7554 13.2197"/>
</g>
</g>
</svg>
