<svg xmlns="http://www.w3.org/2000/svg" xmlns:xlink="http://www.w3.org/1999/xlink" xmlns:inkscape="http://www.inkscape.org/namespaces/inkscape" version="1.1" width="32" height="32" viewBox="0 0 32 32">
<defs>
<clipPath id="clip_1">
<path transform="matrix(1,0,0,-1,0,32)" d="M0 0H32V32H0Z"/>
</clipPath>
<clipPath id="clip_2">
<path transform="matrix(1,0,0,-1,0,32)" d="M0 0H32V32H0Z"/>
</clipPath>
<clipPath id="clip_3">
<path transform="matrix(1,0,0,-1,0,32)" d="M0 0H32V32H0Z"/>
</clipPath>
<clipPath id="clip_4">
<path transform="matrix(1,0,0,-1,0,32)" d="M0 0H32V32H0Z"/>
</clipPath>
<clipPath id="clip_5">
<path transform="matrix(1,0,0,-1,0,32)" d="M15 6H26V26H15Z"/>
</clipPath>
<clipPath id="clip_6">
<path transform="matrix(1,0,0,-1,0,32)" d="M15.1635 6.17638H25.9221V25.176H15.1635Z"/>
</clipPath>
<clipPath id="clip_7">
<path transform="matrix(1,0,0,-1,0,32)" d="M0 0H32V32H0Z"/>
</clipPath>
<clipPath id="clip_8">
<path transform="matrix(1,0,0,-1,0,32)" d="M3 3H11V17H3Z"/>
</clipPath>
<clipPath id="clip_9">
<path transform="matrix(1,0,0,-1,0,32)" d="M3.40916 3.91029H10.953V16.6243H3.40916Z"/>
</clipPath>
</defs>
<g>
<g clip-path="url(#clip_1)">
<g opacity=".8">
<g clip-path="url(#clip_2)">
<g clip-path="url(#clip_3)">
<path transform="matrix(1,0,0,-1,0,32)" d="M0 0H32V32H0Z"/>
</g>
</g>
</g>
</g>
<g clip-path="url(#clip_4)">
<g opacity=".6">
<g clip-path="url(#clip_5)">
<g clip-path="url(#clip_6)">
<path transform="matrix(1,0,0,-1,0,32)" d="M23.8677 16.8955C24.5597 16.6625 25.0757 16.2805 25.4137 15.7495 25.7527 15.2165 25.9217 13.9735 25.9217 12.0165 25.9217 10.5625 25.7567 9.4355 25.4257 8.6335 25.0947 7.8305 24.5227 7.2205 23.7097 6.8025 22.8967 6.3845 21.8537 6.1765 20.5827 6.1765 19.1377 6.1765 18.0027 6.4185 17.1787 6.9045 16.3547 7.3895 15.8127 7.9845 15.5537 8.6885 15.2937 9.3915 15.1637 10.6135 15.1637 12.3515V13.7965H19.7237V10.8275C19.7237 10.0375 19.7717 9.5355 19.8657 9.3205 19.9597 9.1055 20.1687 8.9995 20.4927 8.9995 20.8457 8.9995 21.0787 9.1335 21.1917 9.4055 21.3047 9.6755 21.3617 10.3835 21.3617 11.5275V12.7915C21.3617 13.4925 21.2827 14.0035 21.1237 14.3275 20.9667 14.6505 20.7327 14.8635 20.4247 14.9645 20.1157 15.0665 19.5177 15.1245 18.6297 15.1395V17.7925C19.7127 17.7925 20.3827 17.8335 20.6387 17.9165 20.8947 17.9995 21.0787 18.1805 21.1917 18.4585 21.3047 18.7375 21.3617 19.1735 21.3617 19.7685V20.7845C21.3617 21.4235 21.2957 21.8455 21.1637 22.0485 21.0327 22.2515 20.8267 22.3535 20.5487 22.3535 20.2327 22.3535 20.0157 22.2465 19.8997 22.0325 19.7827 21.8175 19.7237 21.3605 19.7237 20.6605V19.1595H15.1637V20.7165C15.1637 22.4625 15.5627 23.6425 16.3607 24.2555 17.1587 24.8695 18.4267 25.1755 20.1647 25.1755 22.3397 25.1755 23.8147 24.7505 24.5897 23.9005 25.3657 23.0515 25.7527 21.8705 25.7527 20.3595 25.7527 19.3355 25.6137 18.5965 25.3347 18.1425 25.0567 17.6875 24.5677 17.2715 23.8677 16.8955" fill="#ffffff"/>
</g>
</g>
</g>
</g>
<g clip-path="url(#clip_7)">
<g opacity=".5">
<g clip-path="url(#clip_8)">
<g clip-path="url(#clip_9)">
<path transform="matrix(1,0,0,-1,0,32)" d="M10.9502 6.124C10.9782 5.851 10.8042 5.658 10.4292 5.546 10.3062 5.564 10.1282 5.56 9.8932 5.532 9.7232 5.532 9.1932 5.395 8.3002 5.123 7.2952 4.842 6.5472 4.578 6.0592 4.334 5.9282 4.269 5.8072 4.181 5.7002 4.073 5.5912 3.965 5.5242 3.911 5.4952 3.911 5.3542 3.892 4.9462 4.136 4.2692 4.645 4.0802 4.757 3.8932 4.878 3.7052 5.011 3.5172 5.143 3.4182 5.297 3.4092 5.476 3.4092 5.541 3.8182 6.156 4.6352 7.321 5.6402 8.75 6.4212 9.943 6.9752 10.901 7.8302 12.415 8.2912 13.613 8.3562 14.496 7.6242 14.196 6.8912 13.52 6.1582 12.466 6.1012 12.419 6.0662 12.333 6.0522 12.206 6.0382 12.078 6.0122 11.992 5.9742 11.945 5.8802 11.822 5.7442 11.762 5.5652 11.762 5.2562 11.762 4.8802 11.912 4.4382 12.213 4.2502 12.316 4.0622 12.419 3.8742 12.523 3.6492 12.645 3.5312 12.753 3.5222 12.847 3.5032 13.063 3.7382 13.481 4.2272 14.102 4.7532 14.759 5.3352 15.319 5.9742 15.779 6.7362 16.344 7.4122 16.624 8.0042 16.624 8.2292 16.624 8.4442 16.552 8.6452 16.406 8.8472 16.261 9.0422 16.112 9.2302 15.963 9.9922 15.436 10.4752 14.938 10.6822 14.468 10.7202 14.374 10.7392 14.252 10.7392 14.102 10.7392 13.443 10.3902 12.372 9.6962 10.888 9.0372 9.487 8.3332 8.271 7.5812 7.238 7.8722 7.331 8.2772 7.472 8.7932 7.66 8.8502 7.688 8.9492 7.754 9.0892 7.857 9.1832 7.923 9.2732 7.951 9.3572 7.942 9.5832 7.913 9.9002 7.648 10.3082 7.146 10.7182 6.643 10.9312 6.302 10.9502 6.124" fill="#ffffff"/>
</g>
</g>
</g>
</g>
</g>
</svg>
