<svg xmlns="http://www.w3.org/2000/svg" xmlns:xlink="http://www.w3.org/1999/xlink" xmlns:inkscape="http://www.inkscape.org/namespaces/inkscape" version="1.1" width="32" height="32" viewBox="0 0 32 32">
<defs>
<clipPath id="clip_1">
<path transform="matrix(1,0,0,-1,0,32)" d="M0 0H32V32H0Z"/>
</clipPath>
<clipPath id="clip_2">
<path transform="matrix(1,0,0,-1,0,32)" d="M0 0H32V32H0Z"/>
</clipPath>
<clipPath id="clip_3">
<path transform="matrix(1,0,0,-1,0,32)" d="M0 0H32V32H0Z"/>
</clipPath>
<clipPath id="clip_4">
<path transform="matrix(1,0,0,-1,0,32)" d="M0 0H32V32H0Z"/>
</clipPath>
<clipPath id="clip_5">
<path transform="matrix(1,0,0,-1,0,32)" d="M0 0H32V32H0Z"/>
</clipPath>
<clipPath id="clip_6">
<path transform="matrix(1,0,0,-1,0,32)" d="M0 0H32V32H0Z"/>
</clipPath>
<clipPath id="clip_7">
<path transform="matrix(1,0,0,-1,0,32)" d="M15 7H26V26H15Z"/>
</clipPath>
<clipPath id="clip_8">
<path transform="matrix(1,0,0,-1,0,32)" d="M15.2909 7.06299H25.7334V25.69H15.2909Z"/>
</clipPath>
<clipPath id="clip_9">
<path transform="matrix(1,0,0,-1,0,32)" d="M0 0H32V32H0Z"/>
</clipPath>
<clipPath id="clip_10">
<path transform="matrix(1,0,0,-1,0,32)" d="M4 5H9V18H4Z"/>
</clipPath>
<clipPath id="clip_11">
<path transform="matrix(1,0,0,-1,0,32)" d="M4.03822 5.13661H8.18199V17.564202H4.03822Z"/>
</clipPath>
</defs>
<g>
<g clip-path="url(#clip_1)">
<g>
<g clip-path="url(#clip_2)">
<g clip-path="url(#clip_3)">
<g style="mix-blend-mode:color">
<g clip-path="url(#clip_4)">
<g clip-path="url(#clip_5)">
<path transform="matrix(1,0,0,-1,0,32)" d="M0 0H32V32H0Z" fill="#0000ff"/>
</g>
</g>
</g>
</g>
<g clip-path="url(#clip_6)">
<g opacity=".5">
<g clip-path="url(#clip_7)">
<g clip-path="url(#clip_8)">
<path transform="matrix(1,0,0,-1,0,32)" d="M25.3271 10.1787V7.0637H15.2911L15.2941 9.6707C18.2661 14.5327 20.0331 17.5407 20.5941 18.6967 21.1551 19.8517 21.4351 20.7527 21.4351 21.4007 21.4351 21.8967 21.3501 22.2677 21.1811 22.5117 21.0111 22.7567 20.7531 22.8787 20.4071 22.8787 20.0591 22.8787 19.8021 22.7427 19.6321 22.4727 19.4621 22.2017 19.3771 21.6637 19.3771 20.8587V19.1197H15.2911V19.7857C15.2911 20.8097 15.3441 21.6167 15.4491 22.2067 15.5541 22.7977 15.8141 23.3797 16.2281 23.9507 16.6421 24.5237 17.1801 24.9557 17.8421 25.2497 18.5041 25.5427 19.2981 25.6907 20.2241 25.6907 22.0381 25.6907 23.4101 25.2407 24.3391 24.3407 25.2681 23.4417 25.7331 22.3037 25.7331 20.9257 25.7331 19.8797 25.4721 18.7737 24.9491 17.6077 24.4261 16.4407 22.8851 13.9647 20.3261 10.1787Z" fill="#ffffff"/>
</g>
</g>
</g>
</g>
<g clip-path="url(#clip_9)">
<g opacity=".75">
<g clip-path="url(#clip_10)">
<g clip-path="url(#clip_11)">
<path transform="matrix(1,0,0,-1,0,32)" d="M8.1821 6.0381C8.1821 5.8001 8.1111 5.5881 7.9701 5.4021 7.8301 5.2171 7.6511 5.1281 7.4351 5.1381 7.2841 5.1471 6.9181 5.3501 6.3361 5.7451 5.7531 6.1411 5.4561 6.4131 5.4471 6.5651 5.4471 6.6321 5.4621 6.7211 5.4901 6.8311 5.5181 6.9401 5.5321 7.0221 5.5321 7.0811V13.0801C5.5321 13.2981 5.3211 13.4551 4.8981 13.5511 4.4281 13.6641 4.1601 13.8221 4.0941 14.0221 4.0571 14.1271 4.0381 14.2261 4.0381 14.3221 4.0381 14.5311 4.1411 14.7791 4.3481 15.0651 4.6301 15.4541 4.7991 15.7081 4.8551 15.8211 4.9681 16.1921 5.0811 16.5641 5.1941 16.9351 5.3531 17.3541 5.6311 17.5641 6.0251 17.5641 6.4291 17.5641 6.8331 17.4391 7.2371 17.1931 7.6891 16.9171 7.9141 16.6021 7.9141 16.2511V6.7811C7.9141 6.6851 7.9591 6.5631 8.0481 6.4161 8.1371 6.2681 8.1821 6.1421 8.1821 6.0381"/>
</g>
</g>
</g>
</g>
</g>
</g>
</g>
</g>
</svg>
