<svg xmlns="http://www.w3.org/2000/svg" xmlns:xlink="http://www.w3.org/1999/xlink" xmlns:inkscape="http://www.inkscape.org/namespaces/inkscape" version="1.1" width="32" height="32" viewBox="0 0 32 32">
<defs>
<clipPath id="clip_1">
<path transform="matrix(1,0,0,-1,0,32)" d="M0 0H32V32H0Z"/>
</clipPath>
<clipPath id="clip_2">
<path transform="matrix(1,0,0,-1,0,32)" d="M0 0H32V32H0Z"/>
</clipPath>
<clipPath id="clip_3">
<path transform="matrix(1,0,0,-1,0,32)" d="M0 0H32V32H0Z"/>
</clipPath>
<clipPath id="clip_4">
<path transform="matrix(1,0,0,-1,0,32)" d="M0 0H32V32H0Z"/>
</clipPath>
<clipPath id="clip_5">
<path transform="matrix(1,0,0,-1,0,32)" d="M14 6H26V26H14Z"/>
</clipPath>
<clipPath id="clip_6">
<path transform="matrix(1,0,0,-1,0,32)" d="M14.5847 6.968H25.8625V25.2451H14.5847Z"/>
</clipPath>
<clipPath id="clip_7">
<path transform="matrix(1,0,0,-1,0,32)" d="M0 0H32V32H0Z"/>
</clipPath>
<clipPath id="clip_8">
<path transform="matrix(1,0,0,-1,0,32)" d="M3 3H11V17H3Z"/>
</clipPath>
<clipPath id="clip_9">
<path transform="matrix(1,0,0,-1,0,32)" d="M3.02382 3.91029H10.567699V16.6243H3.02382Z"/>
</clipPath>
</defs>
<g>
<g clip-path="url(#clip_1)">
<g opacity=".8">
<g clip-path="url(#clip_2)">
<g clip-path="url(#clip_3)">
<path transform="matrix(1,0,0,-1,0,32)" d="M0 0H32V32H0Z" fill="#ffff00"/>
</g>
</g>
</g>
</g>
<g clip-path="url(#clip_4)">
<g opacity=".5">
<g clip-path="url(#clip_5)">
<g clip-path="url(#clip_6)">
<path transform="matrix(1,0,0,-1,0,32)" d="M20.0034 13.3008V21.0788L17.9884 13.3008ZM24.5644 25.2448V13.3008H25.8624V10.1858H24.5644V6.9678H20.0034V10.1858H14.5844V13.3008L18.5244 25.2448Z"/>
</g>
</g>
</g>
</g>
<g clip-path="url(#clip_7)">
<g opacity=".8">
<g clip-path="url(#clip_8)">
<g clip-path="url(#clip_9)">
<path transform="matrix(1,0,0,-1,0,32)" d="M10.5645 6.124C10.5935 5.851 10.4185 5.658 10.0435 5.546 9.9205 5.564 9.7425 5.56 9.5075 5.532 9.3385 5.532 8.8085 5.395 7.9155 5.123 6.9095 4.842 6.1625 4.578 5.6745 4.334 5.5425 4.269 5.4225 4.181 5.3145 4.073 5.2065 3.965 5.1385 3.911 5.1105 3.911 4.9695 3.892 4.5605 4.136 3.8835 4.645 3.6955 4.757 3.5075 4.878 3.3195 5.011 3.1315 5.143 3.0335 5.297 3.0235 5.476 3.0235 5.541 3.4325 6.156 4.2505 7.321 5.2555 8.75 6.0355 9.943 6.5895 10.901 7.4455 12.415 7.9055 13.613 7.9715 14.496 7.2385 14.196 6.5055 13.52 5.7725 12.466 5.7155 12.419 5.6815 12.333 5.6665 12.206 5.6525 12.078 5.6265 11.992 5.5895 11.945 5.4955 11.822 5.3585 11.762 5.1805 11.762 4.8705 11.762 4.4945 11.912 4.0525 12.213 3.8645 12.316 3.6775 12.419 3.4885 12.523 3.2635 12.645 3.1465 12.753 3.1365 12.847 3.1175 13.063 3.3535 13.481 3.8415 14.102 4.3675 14.759 4.9505 15.319 5.5895 15.779 6.3505 16.344 7.0265 16.624 7.6195 16.624 7.8445 16.624 8.0585 16.552 8.2605 16.406 8.4615 16.261 8.6575 16.112 8.8455 15.963 9.6065 15.436 10.0905 14.938 10.2975 14.468 10.3345 14.374 10.3535 14.252 10.3535 14.102 10.3535 13.443 10.0055 12.372 9.3105 10.888 8.6525 9.487 7.9475 8.271 7.1965 7.238 7.4865 7.331 7.8915 7.472 8.4085 7.66 8.4645 7.688 8.5635 7.754 8.7045 7.857 8.7985 7.923 8.8875 7.951 8.9725 7.942 9.1975 7.913 9.5155 7.648 9.9235 7.146 10.3325 6.643 10.5455 6.302 10.5645 6.124"/>
</g>
</g>
</g>
</g>
</g>
</svg>
